<svg xmlns="http://www.w3.org/2000/svg" xmlns:xlink="http://www.w3.org/1999/xlink" viewBox="0 0 512 512" width="512" height="512" preserveAspectRatio="xMidYMid meet" style="width: 100%; height: 100%; transform: translate3d(0px, 0px, 0px); content-visibility: visible;"><defs><clipPath id="__lottie_element_2"><rect width="512" height="512" x="0" y="0"/></clipPath><linearGradient id="__lottie_element_11" spreadMethod="pad" gradientUnits="userSpaceOnUse" x1="-135" y1="-66" x2="-0.4059999883174896" y2="137.18600463867188"><stop offset="9%" stop-color="rgb(197,7,7)"/><stop offset="49%" stop-color="rgb(147,4,4)"/><stop offset="100%" stop-color="rgb(97,1,0)"/></linearGradient><linearGradient id="__lottie_element_12" spreadMethod="pad" gradientUnits="userSpaceOnUse" x1="-163" y1="-27" x2="87.27899932861328" y2="42.599998474121094"><stop offset="0%" stop-color="rgb(255,19,21)"/><stop offset="44%" stop-color="rgb(215,24,26)"/><stop offset="100%" stop-color="rgb(176,29,30)"/></linearGradient><linearGradient id="__lottie_element_13" spreadMethod="pad" gradientUnits="userSpaceOnUse" x1="-163" y1="-27" x2="87.27899932861328" y2="42.599998474121094"><stop offset="0%" stop-color="rgb(255,19,21)"/><stop offset="44%" stop-color="rgb(215,24,26)"/><stop offset="100%" stop-color="rgb(176,29,30)"/></linearGradient><linearGradient id="__lottie_element_14" spreadMethod="pad" gradientUnits="userSpaceOnUse" x1="-163" y1="-27" x2="87.27899932861328" y2="42.599998474121094"><stop offset="0%" stop-color="rgb(255,19,21)"/><stop offset="44%" stop-color="rgb(215,24,26)"/><stop offset="100%" stop-color="rgb(176,29,30)"/></linearGradient><linearGradient id="__lottie_element_19" spreadMethod="pad" gradientUnits="userSpaceOnUse" x1="-16" y1="25" x2="80.91600036621094" y2="70.0260009765625"><stop offset="0%" stop-color="rgb(0,19,21)" stop-opacity="1"/><stop offset="26%" stop-color="rgb(0,19,21)" stop-opacity="0.800000011920929"/><stop offset="32%" stop-color="rgb(0,19,21)" stop-opacity="0.6000000238418579"/><stop offset="82%" stop-color="rgb(0,24,26)" stop-opacity="0.30000001192092896"/><stop offset="100%" stop-color="rgb(0,29,30)" stop-opacity="0"/></linearGradient></defs><g clip-path="url(#__lottie_element_2)"><g transform="matrix(-0.8891050219535828,0.45770323276519775,-0.45770323276519775,-0.8891050219535828,215.3350372314453,122.53205871582031)" opacity="1" style="display: none;"><g opacity="1" transform="matrix(1,0,0,1,0,0)"><path stroke-linecap="round" stroke-linejoin="round" fill-opacity="0" stroke="rgb(213,213,213)" stroke-opacity="1" stroke-width="0" d="M0 0"/></g></g><g transform="matrix(-0.9999372363090515,0.011204779148101807,-0.011204779148101807,-0.9999372363090515,241.46212768554688,110.42963409423828)" opacity="1" style="display: none;"><g opacity="1" transform="matrix(1,0,0,1,0,0)"><path stroke-linecap="round" stroke-linejoin="round" fill-opacity="0" stroke="rgb(213,213,213)" stroke-opacity="1" stroke-width="0" d="M0 0"/></g></g><g transform="matrix(-0.6092736124992371,-0.7929600477218628,0.7929600477218628,-0.6092736124992371,295.5130615234375,124.90929412841797)" opacity="1" style="display: none;"><g opacity="1" transform="matrix(1,0,0,1,0,0)"><path stroke-linecap="round" stroke-linejoin="round" fill-opacity="0" stroke="rgb(213,213,213)" stroke-opacity="1" stroke-width="0" d="M0 0"/></g></g><g transform="matrix(-0.8080721497535706,0.5890835523605347,-0.5890835523605347,-0.8080721497535706,208.22103881835938,129.06895446777344)" opacity="1" style="display: none;"><g opacity="1" transform="matrix(1,0,0,1,0,0)"><path stroke-linecap="round" stroke-linejoin="round" fill-opacity="0" stroke="rgb(213,213,213)" stroke-opacity="1" stroke-width="0" d="M0 0"/></g></g><g transform="matrix(-0.7945948243141174,-0.6071401238441467,0.6071401238441467,-0.7945948243141174,281.8970642089844,115.72197723388672)" opacity="1" style="display: none;"><g opacity="1" transform="matrix(1,0,0,1,0,0)"><path stroke-linecap="round" stroke-linejoin="round" fill-opacity="0" stroke="rgb(213,213,213)" stroke-opacity="1" stroke-width="0" d="M0 0"/></g></g><g transform="matrix(0.6158815026283264,-0.7878388166427612,0.7878388166427612,0.6158815026283264,309.7164001464844,200.26434326171875)" opacity="1" style="display: none;"><g opacity="1" transform="matrix(1,0,0,1,0,0)"><path stroke-linecap="round" stroke-linejoin="round" fill-opacity="0" stroke="rgb(213,213,213)" stroke-opacity="1" stroke-width="0.015747170087594853" d=" M-14.40999984741211,-294.3630065917969 C-14.40999984741211,-294.4639892578125 -14.409000396728516,-294.5150146484375 -14.409000396728516,-294.5150146484375"/></g></g><g transform="matrix(0.4292031526565552,0.9032079577445984,-0.9032079577445984,0.4292031526565552,203.57760620117188,208.83055114746094)" opacity="1" style="display: none;"><g opacity="1" transform="matrix(1,0,0,1,0,0)"><path stroke-linecap="round" stroke-linejoin="round" fill-opacity="0" stroke="rgb(213,213,213)" stroke-opacity="1" stroke-width="0" d="M0 0"/></g></g><g transform="matrix(0.46219751238822937,-0.8867769837379456,0.8867769837379456,0.46219751238822937,313.9757080078125,239.64697265625)" opacity="1" style="display: none;"><g opacity="1" transform="matrix(1,0,0,1,0,0)"><path stroke-linecap="round" stroke-linejoin="round" fill-opacity="0" stroke="rgb(213,213,213)" stroke-opacity="1" stroke-width="0" d="M0 0"/></g></g><g transform="matrix(-0.2378215193748474,-0.9713088870048523,0.9713088870048523,-0.2378215193748474,310.87554931640625,145.6241912841797)" opacity="1" style="display: none;"><g opacity="1" transform="matrix(1,0,0,1,0,0)"><path stroke-linecap="round" stroke-linejoin="round" fill-opacity="0" stroke="rgb(213,213,213)" stroke-opacity="1" stroke-width="0" d="M0 0"/></g></g><g transform="matrix(0.9999005794525146,0.014101793058216572,-0.014101793058216572,0.9999005794525146,264.982177734375,233.3679962158203)" opacity="1" style="display: none;"><g opacity="1" transform="matrix(1,0,0,1,0,0)"><path stroke-linecap="round" stroke-linejoin="round" fill-opacity="0" stroke="rgb(213,213,213)" stroke-opacity="1" stroke-width="0" d="M0 0"/></g></g><g transform="matrix(0.9093813896179199,-0.41596338152885437,0.41596338152885437,0.9093813896179199,290.34002685546875,222.70867919921875)" opacity="1" style="display: none;"><g opacity="1" transform="matrix(1,0,0,1,0,0)"><path stroke-linecap="round" stroke-linejoin="round" fill-opacity="0" stroke="rgb(213,213,213)" stroke-opacity="1" stroke-width="0" d="M0 0"/></g></g><g transform="matrix(0.33293473720550537,-0.9429498910903931,0.9429498910903931,0.33293473720550537,315.8961486816406,181.03721618652344)" opacity="1" style="display: none;"><g opacity="1" transform="matrix(1,0,0,1,0,0)"><path stroke-linecap="round" stroke-linejoin="round" fill-opacity="0" stroke="rgb(213,213,213)" stroke-opacity="1" stroke-width="0" d="M0 0"/></g></g><g transform="matrix(-0.10140357166528702,0.9948453903198242,-0.9948453903198242,-0.10140357166528702,191.6581573486328,177.3069610595703)" opacity="1" style="display: none;"><g opacity="1" transform="matrix(1,0,0,1,0,0)"><path stroke-linecap="round" stroke-linejoin="round" fill-opacity="0" stroke="rgb(213,213,213)" stroke-opacity="1" stroke-width="0.010061617166615022" d=" M-15.342000007629395,-243.53199768066406 C-15.345000267028809,-243.62399291992188 -15.345999717712402,-243.67100524902344 -15.345999717712402,-243.67100524902344"/></g></g><g transform="matrix(0.4384182095527649,0.8987711071968079,-0.8987711071968079,0.4384182095527649,203.95947265625,209.34429931640625)" opacity="1" style="display: none;"><g opacity="1" transform="matrix(1,0,0,1,0,0)"><path stroke-linecap="round" stroke-linejoin="round" fill-opacity="0" stroke="rgb(213,213,213)" stroke-opacity="1" stroke-width="0" d="M0 0"/></g></g><g transform="matrix(-0.5951033234596252,0.8036491870880127,-0.8036491870880127,-0.5951033234596252,197.5581512451172,144.69998168945312)" opacity="1" style="display: none;"><g opacity="1" transform="matrix(1,0,0,1,0,0)"><path stroke-linecap="round" stroke-linejoin="round" fill-opacity="0" stroke="rgb(213,213,213)" stroke-opacity="1" stroke-width="0" d="M0 0"/></g></g><g transform="matrix(-0.9999721050262451,0.007469939533621073,-0.007469939533621073,-0.9999721050262451,241.69125366210938,130.38323974609375)" opacity="1" style="display: none;"><g opacity="1" transform="matrix(1,0,0,1,0,0)"><path stroke-linecap="round" stroke-linejoin="round" fill-opacity="0" stroke="rgb(213,213,213)" stroke-opacity="1" stroke-width="0" d="M0 0"/></g></g><g transform="matrix(-0.950342059135437,-0.31120723485946655,0.31120723485946655,-0.950342059135437,261.86431884765625,129.65701293945312)" opacity="1" style="display: none;"><g opacity="1" transform="matrix(1,0,0,1,0,0)"><path stroke-linecap="round" stroke-linejoin="round" fill-opacity="0" stroke="rgb(213,213,213)" stroke-opacity="1" stroke-width="0" d="M0 0"/></g></g><g transform="matrix(-0.8831605315208435,0.4690708518028259,-0.4690708518028259,-0.8831605315208435,214.7068634033203,143.03208923339844)" opacity="1" style="display: none;"><g opacity="1" transform="matrix(1,0,0,1,0,0)"><path stroke-linecap="round" stroke-linejoin="round" fill-opacity="0" stroke="rgb(213,213,213)" stroke-opacity="1" stroke-width="0" d="M0 0"/></g></g><g transform="matrix(0.9168720841407776,-0.39918118715286255,-0.39918118715286255,-0.9168720841407776,244.33245849609375,110.67149353027344)" opacity="1" style="display: none;"><g opacity="1" transform="matrix(1,0,0,1,0,0)"><path stroke-linecap="round" stroke-linejoin="round" fill-opacity="0" stroke="rgb(213,213,213)" stroke-opacity="1" stroke-width="0" d="M0 0"/></g></g><g transform="matrix(0.8891050219535828,0.45770323276519775,0.45770323276519775,-0.8891050219535828,296.66497802734375,122.53205871582031)" opacity="1" style="display: none;"><g opacity="1" transform="matrix(1,0,0,1,0,0)"><path stroke-linecap="round" stroke-linejoin="round" fill-opacity="0" stroke="rgb(213,213,213)" stroke-opacity="1" stroke-width="0" d="M0 0"/></g></g><g transform="matrix(0.9999372363090515,0.011204779148101807,0.011204779148101807,-0.9999372363090515,270.5378723144531,110.42962646484375)" opacity="1" style="display: none;"><g opacity="1" transform="matrix(1,0,0,1,0,0)"><path stroke-linecap="round" stroke-linejoin="round" fill-opacity="0" stroke="rgb(213,213,213)" stroke-opacity="1" stroke-width="0" d="M0 0"/></g></g><g transform="matrix(0.6092736124992371,-0.7929600477218628,-0.7929600477218628,-0.6092736124992371,216.4869384765625,124.9093017578125)" opacity="1" style="display: none;"><g opacity="1" transform="matrix(1,0,0,1,0,0)"><path stroke-linecap="round" stroke-linejoin="round" fill-opacity="0" stroke="rgb(213,213,213)" stroke-opacity="1" stroke-width="0" d="M0 0"/></g></g><g transform="matrix(0.8080721497535706,0.5890835523605347,0.5890835523605347,-0.8080721497535706,343.7789611816406,129.06895446777344)" opacity="1" style="display: none;"><g opacity="1" transform="matrix(1,0,0,1,0,0)"><path stroke-linecap="round" stroke-linejoin="round" fill-opacity="0" stroke="rgb(213,213,213)" stroke-opacity="1" stroke-width="0" d="M0 0"/></g></g><g transform="matrix(0.7945948243141174,-0.6071401238441467,-0.6071401238441467,-0.7945948243141174,230.10293579101562,115.72198486328125)" opacity="1" style="display: none;"><g opacity="1" transform="matrix(1,0,0,1,0,0)"><path stroke-linecap="round" stroke-linejoin="round" fill-opacity="0" stroke="rgb(213,213,213)" stroke-opacity="1" stroke-width="0" d="M0 0"/></g></g><g transform="matrix(-0.6158815026283264,-0.7878388166427612,-0.7878388166427612,0.6158815026283264,202.28359985351562,200.26434326171875)" opacity="1" style="display: none;"><g opacity="1" transform="matrix(1,0,0,1,0,0)"><path stroke-linecap="round" stroke-linejoin="round" fill-opacity="0" stroke="rgb(213,213,213)" stroke-opacity="1" stroke-width="0" d="M0 0"/></g></g><g transform="matrix(-0.4292031526565552,0.9032079577445984,0.9032079577445984,0.4292031526565552,308.4223937988281,208.83055114746094)" opacity="1" style="display: none;"><g opacity="1" transform="matrix(1,0,0,1,0,0)"><path stroke-linecap="round" stroke-linejoin="round" fill-opacity="0" stroke="rgb(213,213,213)" stroke-opacity="1" stroke-width="0" d="M0 0"/></g></g><g transform="matrix(0.5033366680145264,0.8640903830528259,0.8640903830528259,-0.5033366680145264,317.0689392089844,151.055908203125)" opacity="1" style="display: none;"><g opacity="1" transform="matrix(1,0,0,1,0,0)"><path stroke-linecap="round" stroke-linejoin="round" fill-opacity="0" stroke="rgb(213,213,213)" stroke-opacity="1" stroke-width="0" d="M0 0"/></g></g><g transform="matrix(0.2378215193748474,-0.9713088870048523,-0.9713088870048523,-0.2378215193748474,201.12445068359375,145.6241912841797)" opacity="1" style="display: none;"><g opacity="1" transform="matrix(1,0,0,1,0,0)"><path stroke-linecap="round" stroke-linejoin="round" fill-opacity="0" stroke="rgb(213,213,213)" stroke-opacity="1" stroke-width="0" d="M0 0"/></g></g><g transform="matrix(-0.9999005794525146,0.014101793058216572,0.014101793058216572,0.9999005794525146,247.01783752441406,233.3679962158203)" opacity="1" style="display: none;"><g opacity="1" transform="matrix(1,0,0,1,0,0)"><path stroke-linecap="round" stroke-linejoin="round" fill-opacity="0" stroke="rgb(213,213,213)" stroke-opacity="1" stroke-width="0" d="M0 0"/></g></g><g transform="matrix(-0.9093813896179199,-0.41596338152885437,-0.41596338152885437,0.9093813896179199,221.65997314453125,222.70867919921875)" opacity="1" style="display: none;"><g opacity="1" transform="matrix(1,0,0,1,0,0)"><path stroke-linecap="round" stroke-linejoin="round" fill-opacity="0" stroke="rgb(213,213,213)" stroke-opacity="1" stroke-width="0" d="M0 0"/></g></g><g transform="matrix(-0.33293473720550537,-0.9429498910903931,-0.9429498910903931,0.33293473720550537,196.10385131835938,181.03721618652344)" opacity="1" style="display: none;"><g opacity="1" transform="matrix(1,0,0,1,0,0)"><path stroke-linecap="round" stroke-linejoin="round" fill-opacity="0" stroke="rgb(213,213,213)" stroke-opacity="1" stroke-width="0" d="M0 0"/></g></g><g transform="matrix(0.10140357166528702,0.9948453903198242,0.9948453903198242,-0.10140357166528702,320.34185791015625,197.3069610595703)" opacity="1" style="display: none;"><g opacity="1" transform="matrix(1,0,0,1,0,0)"><path stroke-linecap="round" stroke-linejoin="round" fill-opacity="0" stroke="rgb(213,213,213)" stroke-opacity="1" stroke-width="0" d="M0 0"/></g></g><g transform="matrix(0.4035932123661041,-0.9149385094642639,-0.9149385094642639,-0.4035932123661041,206.55319213867188,136.10435485839844)" opacity="1" style="display: none;"><g opacity="1" transform="matrix(1,0,0,1,0,0)"><path stroke-linecap="round" stroke-linejoin="round" fill-opacity="0" stroke="rgb(213,213,213)" stroke-opacity="1" stroke-width="0" d="M0 0"/></g></g><g transform="matrix(0.5951033234596252,0.8036491870880127,0.8036491870880127,-0.5951033234596252,314.44183349609375,144.69998168945312)" opacity="1" style="display: none;"><g opacity="1" transform="matrix(1,0,0,1,0,0)"><path stroke-linecap="round" stroke-linejoin="round" fill-opacity="0" stroke="rgb(213,213,213)" stroke-opacity="1" stroke-width="0" d="M0 0"/></g></g><g transform="matrix(0.9600018262863159,0,0,0.9599999785423279,279.73028564453125,286.2699890136719)" opacity="1" style="display: block;"><g opacity="1" transform="matrix(1,0,0,1,0,0)"><path fill="url(#__lottie_element_11)" fill-opacity="1" d=" M23.486000061035156,-52 C-31.54800033569336,-107.03399658203125 -109.0469970703125,-121.052001953125 -160.2729949951172,-88.62100219726562 C-160.2729949951172,-88.62100219726562 -162.04100036621094,-90.38899993896484 -162.04100036621094,-90.38899993896484 C-162.04100036621094,-90.38899993896484 -177.96299743652344,-74.46700286865234 -177.96299743652344,-74.46700286865234 C-227.38800048828125,-25.04199981689453 -217.3300018310547,65.1500015258789 -155.4969940185547,126.98300170898438 C-93.66400146484375,188.8159942626953 -3.4719998836517334,198.87399291992188 45.952999114990234,149.44900512695312 C45.952999114990234,149.44900512695312 61.875,133.52699279785156 61.875,133.52699279785156 C61.875,133.52699279785156 60.106998443603516,131.75900268554688 60.106998443603516,131.75900268554688 C92.53900146484375,80.53299713134766 78.5199966430664,3.0339999198913574 23.486000061035156,-52z"/></g><g opacity="1" transform="matrix(1,0,0,1,0,0)"><path stroke-linecap="butt" stroke-linejoin="round" fill-opacity="0" stroke="rgb(112,0,0)" stroke-opacity="1" stroke-width="8" d=" M23.486000061035156,-52 C-31.54800033569336,-107.03399658203125 -109.0469970703125,-121.052001953125 -160.2729949951172,-88.62100219726562 C-160.2729949951172,-88.62100219726562 -162.04100036621094,-90.38899993896484 -162.04100036621094,-90.38899993896484 C-162.04100036621094,-90.38899993896484 -177.96299743652344,-74.46700286865234 -177.96299743652344,-74.46700286865234 C-227.38800048828125,-25.04199981689453 -217.3300018310547,65.1500015258789 -155.4969940185547,126.98300170898438 C-93.66400146484375,188.8159942626953 -3.4719998836517334,198.87399291992188 45.952999114990234,149.44900512695312 C45.952999114990234,149.44900512695312 61.875,133.52699279785156 61.875,133.52699279785156 C61.875,133.52699279785156 60.106998443603516,131.75900268554688 60.106998443603516,131.75900268554688 C92.53900146484375,80.53299713134766 78.5199966430664,3.0339999198913574 23.486000061035156,-52z"/></g><g opacity="1" transform="matrix(1,0,0,1,0,0)"><path stroke-linecap="round" stroke-linejoin="round" fill-opacity="0" stroke="rgb(81,0,0)" stroke-opacity="1" stroke-width="8" d=" M-127.9229965209961,149.9739990234375 C-69.1050033569336,190.46800231933594 3.4779999256134033,191.9239959716797 45.952999114990234,149.44900512695312 C45.952999114990234,149.44900512695312 61.875,133.52699279785156 61.875,133.52699279785156 C61.875,133.52699279785156 60.106998443603516,131.75900268554688 60.106998443603516,131.75900268554688"/></g><g opacity="1" transform="matrix(1,0,0,1,0,0)"><g opacity="1" transform="matrix(1,0,0,1,0,0)"><path fill="url(#__lottie_element_12)" fill-opacity="1" d=" M39.40800094604492,-67.9219970703125 C101.24099731445312,-6.089000225067139 111.30000305175781,84.10199737548828 61.875,133.52699279785156 C12.449999809265137,182.95199584960938 -77.74199676513672,172.8939971923828 -139.5749969482422,111.06099700927734 C-201.4080047607422,49.22800064086914 -211.46600341796875,-40.9640007019043 -162.04100036621094,-90.38899993896484 C-112.61599731445312,-139.81399536132812 -22.424999237060547,-129.7550048828125 39.40800094604492,-67.9219970703125z"/><path stroke-linecap="butt" stroke-linejoin="round" fill-opacity="0" stroke="rgb(132,3,4)" stroke-opacity="1" stroke-width="8" d=" M39.40800094604492,-67.9219970703125 C101.24099731445312,-6.089000225067139 111.30000305175781,84.10199737548828 61.875,133.52699279785156 C12.449999809265137,182.95199584960938 -77.74199676513672,172.8939971923828 -139.5749969482422,111.06099700927734 C-201.4080047607422,49.22800064086914 -211.46600341796875,-40.9640007019043 -162.04100036621094,-90.38899993896484 C-112.61599731445312,-139.81399536132812 -22.424999237060547,-129.7550048828125 39.40800094604492,-67.9219970703125z"/></g><g opacity="1" transform="matrix(1,0,0,1,0,0)"><path fill="rgb(254,255,255)" fill-opacity="1" d=" M25.29400062561035,-53.80799865722656 C72.3489990234375,-6.752999782562256 80.00299835205078,61.882999420166016 42.39099884033203,99.49500274658203 C4.7789998054504395,137.10699462890625 -63.856998443603516,129.4530029296875 -110.91200256347656,82.39800262451172 C-157.9669952392578,35.34299850463867 -165.62100219726562,-33.292999267578125 -128.00900268554688,-70.90499877929688 C-90.39700317382812,-108.51699829101562 -21.76099967956543,-100.86299896240234 25.29400062561035,-53.80799865722656z"/></g><g opacity="1" transform="matrix(1,0,0,1,0,0)"><path fill="url(#__lottie_element_13)" fill-opacity="1" d=" M13.093000411987305,-41.606998443603516 C49.547000885009766,-5.1529998779296875 55.47700119018555,48.02199935913086 26.33799934387207,77.16100311279297 C-2.8010001182556152,106.30000305175781 -55.97600173950195,100.37000274658203 -92.43000030517578,63.91600036621094 C-128.88400268554688,27.461999893188477 -134.81399536132812,-25.71299934387207 -105.67500305175781,-54.85200119018555 C-76.53600311279297,-83.99099731445312 -23.361000061035156,-78.06099700927734 13.093000411987305,-41.606998443603516z"/></g><g opacity="1" transform="matrix(1,0,0,1,0,0)"><path fill="rgb(251,255,253)" fill-opacity="1" d=" M-1.5740000009536743,-26.940000534057617 C23.87700080871582,-1.4889999628067017 28.017000198364258,35.6349983215332 7.672999858856201,55.979000091552734 C-12.670999526977539,76.322998046875 -49.79499816894531,72.18299865722656 -75.24600219726562,46.731998443603516 C-100.6969985961914,21.2810001373291 -104.83699798583984,-15.843000411987305 -84.49299621582031,-36.1870002746582 C-64.14900207519531,-56.53099822998047 -27.024999618530273,-52.39099884033203 -1.5740000009536743,-26.940000534057617z"/></g><g opacity="1" transform="matrix(1,0,0,1,0,0)"><path fill="url(#__lottie_element_14)" fill-opacity="1" d=" M-15.503999710083008,-13.010000228881836 C-0.9200000166893005,1.5740000009536743 1.4520000219345093,22.84600067138672 -10.204999923706055,34.50299835205078 C-21.86199951171875,46.15999984741211 -43.13399887084961,43.78799819946289 -57.71799850463867,29.20400047302246 C-72.302001953125,14.619999885559082 -74.67400360107422,-6.6519999504089355 -63.016998291015625,-18.30900001525879 C-51.36000061035156,-29.965999603271484 -30.08799934387207,-27.5939998626709 -15.503999710083008,-13.010000228881836z"/></g><g opacity="1" transform="matrix(1,0,0,1,0,0)"><path stroke-linecap="round" stroke-linejoin="round" fill-opacity="0" stroke="rgb(247,141,141)" stroke-opacity="1" stroke-width="8" d=" M-177.593994140625,-53.159000396728516 C-176.86000061035156,-54.96799850463867 -176.0749969482422,-56.75299835205078 -175.23899841308594,-58.51300048828125"/></g><g opacity="1" transform="matrix(1,0,0,1,0,0)"><path stroke-linecap="round" stroke-linejoin="round" fill-opacity="0" stroke="rgb(247,141,141)" stroke-opacity="1" stroke-width="8" d=" M-135.30599975585938,102.79199981689453 C-176.40499877929688,61.69200134277344 -193.02099609375,7.183000087738037 -182.55999755859375,-37.481998443603516"/></g></g></g><g transform="matrix(0.9659953117370605,-0.17815859615802765,0.17816483974456787,0.9659613966941833,145.19644165039062,213.22171020507812)" opacity="1" style="display: none;"><g opacity="1" transform="matrix(1,0,0,1,0,0)"><path stroke-linecap="round" stroke-linejoin="round" fill-opacity="0" stroke="rgb(255,255,255)" stroke-opacity="1" stroke-width="0.0004093532049580517" d=" M6.129978179931641,-109.9991226196289 C6.129978179931641,-109.9991226196289 -5.390933990478516,-52.39456558227539 -5.390933990478516,-52.39456558227539 C-5.390933990478516,-52.39456558227539 -61.07550811767578,-94.63824462890625 -61.07550811767578,-94.63824462890625 C-61.07550811767578,-94.63824462890625 -64.91548156738281,-44.713626861572266 -64.91548156738281,-44.713626861572266 C-64.91548156738281,-44.713626861572266 -124.44002532958984,-69.6754379272461 -124.44002532958984,-69.6754379272461 C-124.44002532958984,-69.6754379272461 -68.75544738769531,1.3700220584869385 -68.75544738769531,1.3700220584869385 C-68.75544738769531,1.3700220584869385 -118.68006896972656,26.331830978393555 -118.68006896972656,26.331830978393555 C-118.68006896972656,26.331830978393555 -43.79364013671875,37.85274124145508 -43.79364013671875,37.85274124145508 C-43.79364013671875,37.85274124145508 -43.79364013671875,118.4991226196289 -43.79364013671875,118.4991226196289 C-43.79364013671875,118.4991226196289 4.2099928855896,60.89456558227539 4.2099928855896,60.89456558227539 C4.2099928855896,60.89456558227539 57.97458267211914,80.09642028808594 57.97458267211914,80.09642028808594 C57.97458267211914,80.09642028808594 44.53368377685547,39.772727966308594 44.53368377685547,39.772727966308594 C44.53368377685547,39.772727966308594 130.9400177001953,37.85274124145508 130.9400177001953,37.85274124145508 C130.9400177001953,37.85274124145508 88.69634246826172,22.491859436035156 88.69634246826172,22.491859436035156 C88.69634246826172,22.491859436035156 65.65452575683594,-4.390933990478516 65.65452575683594,-4.390933990478516 C65.65452575683594,-4.390933990478516 111.73916625976562,-21.671802520751953 111.73916625976562,-21.671802520751953 C111.73916625976562,-21.671802520751953 54.133609771728516,-44.713626861572266 54.133609771728516,-44.713626861572266 C54.133609771728516,-44.713626861572266 104.0582275390625,-67.75544738769531 104.0582275390625,-67.75544738769531 C104.0582275390625,-67.75544738769531 23.411846160888672,-71.59642028808594 23.411846160888672,-71.59642028808594 C23.411846160888672,-71.59642028808594 6.129978179931641,-109.9991226196289 6.129978179931641,-109.9991226196289z"/></g></g><g transform="matrix(0.9600018262863159,0,0,0.9599999785423279,164.70477294921875,217.1202392578125)" opacity="0.3" style="display: block;"><g opacity="1" transform="matrix(1,0,0,1,0,0)"><path fill="url(#__lottie_element_19)" fill-opacity="1" d=" M92.1729965209961,35.88100051879883 C92.1729965209961,35.88100051879883 63.584999084472656,14.295000076293945 17.04800033569336,27.666000366210938 C17.04800033569336,27.666000366210938 -31.06800079345703,5.809000015258789 -31.06800079345703,5.809000015258789 C-33.04999923706055,4.833000183105469 -33.22700119018555,2.385999917984009 -34.20399856567383,4.368000030517578 C-35.180999755859375,6.348999977111816 -34.36600112915039,8.748000144958496 -32.38399887084961,9.725000381469727 C-32.38399887084961,9.725000381469727 13.548999786376953,33.65599822998047 13.548999786376953,33.65599822998047 C26.770999908447266,82.27200317382812 81.59200286865234,105.72899627685547 81.59200286865234,105.72899627685547 C99.23999786376953,71.69200134277344 92.1729965209961,35.88100051879883 92.1729965209961,35.88100051879883z"/></g></g><g transform="matrix(0.9547426700592041,-0.10034730285406113,0.10034749656915665,0.9547408223152161,161.92327880859375,213.77577209472656)" opacity="1" style="display: block;"><g opacity="1" transform="matrix(1,0,0,1,0,0)"><g opacity="1" transform="matrix(1,0,0,1,0,0)"><g opacity="1" transform="matrix(1,0,0,1,0,0)"><g opacity="1" transform="matrix(1,0,0,1,0,0)"><path stroke-linecap="round" stroke-linejoin="round" fill-opacity="0" stroke="rgb(255,221,0)" stroke-opacity="1" stroke-width="8" d=" M32.13199996948242,-36.59000015258789 C32.13199996948242,-36.59000015258789 -31.06800079345703,5.809000015258789 -31.06800079345703,5.809000015258789"/></g><g opacity="1" transform="matrix(1,0,0,1,1.434000015258789,2.0480000972747803)"><path stroke-linecap="round" stroke-linejoin="round" fill-opacity="0" stroke="rgb(150,98,5)" stroke-opacity="1" stroke-width="5" d=" M32.13199996948242,-36.59000015258789 C32.13199996948242,-36.59000015258789 -31.06800079345703,5.809000015258789 -31.06800079345703,5.809000015258789"/></g></g><g opacity="1" transform="matrix(1,0,0,1,0,0)"><g opacity="1" transform="matrix(1,0,0,1,0,0)"><path fill="rgb(220,184,0)" fill-opacity="1" d=" M21.22599983215332,-15.868000030517578 C21.22599983215332,-15.868000030517578 21.22599983215332,-15.868000030517578 21.22599983215332,-15.868000030517578 C13.894000053405762,-19.201000213623047 9.388999938964844,-25.91699981689453 9.086000442504883,-33.96500015258789 C9.086000442504883,-33.96500015258789 9.086000442504883,-33.96500015258789 9.086000442504883,-33.96500015258789 C9.039999961853027,-35.17599868774414 9.751999855041504,-36.43600082397461 10.925999641418457,-37.2239990234375 C10.925999641418457,-37.2239990234375 17.305999755859375,-41.50400161743164 17.305999755859375,-41.50400161743164 C17.305999755859375,-41.50400161743164 31.319000244140625,-20.614999771118164 31.319000244140625,-20.614999771118164 C31.319000244140625,-20.614999771118164 24.940000534057617,-16.334999084472656 24.940000534057617,-16.334999084472656 C23.766000747680664,-15.54699993133545 22.32900047302246,-15.366999626159668 21.22599983215332,-15.868000030517578z"/></g><g opacity="1" transform="matrix(1,0,0,1,0,0)"><path fill="rgb(255,243,26)" fill-opacity="1" d=" M20.56999969482422,-29.152000427246094 C20.56999969482422,-29.152000427246094 12.253000259399414,-23.572999954223633 12.253000259399414,-23.572999954223633 C10.340999603271484,-26.57699966430664 9.23799991607666,-30.11199951171875 9.088000297546387,-33.96099853515625 C9.036999702453613,-35.17900085449219 9.753000259399414,-36.44200134277344 10.92199993133545,-37.22600173950195 C10.92199993133545,-37.22600173950195 15.934000015258789,-40.5890007019043 15.934000015258789,-40.5890007019043 C16.766000747680664,-36.426998138427734 18.33799934387207,-32.56700134277344 20.56999969482422,-29.152000427246094z"/></g><g opacity="1" transform="matrix(1,0,0,1,0,0)"><path stroke-linecap="round" stroke-linejoin="round" fill-opacity="0" stroke="rgb(170,101,0)" stroke-opacity="1" stroke-width="5" d=" M21.21299934387207,-15.859999656677246 C21.21299934387207,-15.859999656677246 21.21299934387207,-15.859999656677246 21.21299934387207,-15.859999656677246 C13.87600040435791,-19.190000534057617 9.371000289916992,-25.90399932861328 9.072999954223633,-33.95600128173828 C9.072999954223633,-33.95600128173828 9.072999954223633,-33.95600128173828 9.072999954223633,-33.95600128173828 C9.027999877929688,-35.167999267578125 9.741000175476074,-36.42900085449219 10.916999816894531,-37.21799850463867 C10.916999816894531,-37.21799850463867 17.305999755859375,-41.50400161743164 17.305999755859375,-41.50400161743164 C17.305999755859375,-41.50400161743164 31.319000244140625,-20.614999771118164 31.319000244140625,-20.614999771118164 C31.319000244140625,-20.614999771118164 24.930999755859375,-16.32900047302246 24.930999755859375,-16.32900047302246 C23.7549991607666,-15.539999961853027 22.316999435424805,-15.359000205993652 21.21299934387207,-15.859999656677246z"/></g></g><g opacity="1" transform="matrix(1,0,0,1,0,0)"><g opacity="1" transform="matrix(1,0,0,1,0,0)"><path fill="rgb(220,184,0)" fill-opacity="1" d=" M34.84400177001953,-16.78700065612793 C34.84400177001953,-16.78700065612793 34.84400177001953,-16.78700065612793 34.84400177001953,-16.78700065612793 C23.966999053955078,-22.90999984741211 16.641000747680664,-33.83000183105469 15.10099983215332,-46.21699905395508 C15.10099983215332,-46.21699905395508 15.10099983215332,-46.21699905395508 15.10099983215332,-46.21699905395508 C14.869000434875488,-48.08100128173828 15.706000328063965,-49.91699981689453 17.266000747680664,-50.9630012512207 C17.266000747680664,-50.9630012512207 25.740999221801758,-56.64799880981445 25.740999221801758,-56.64799880981445 C25.740999221801758,-56.64799880981445 48.53099822998047,-22.676000595092773 48.53099822998047,-22.676000595092773 C48.53099822998047,-22.676000595092773 40.05699920654297,-16.990999221801758 40.05699920654297,-16.990999221801758 C38.49700164794922,-15.944999694824219 36.48099899291992,-15.866000175476074 34.84400177001953,-16.78700065612793z"/></g><g opacity="1" transform="matrix(1,0,0,1,0,0)"><g opacity="1" transform="matrix(1,0,0,1,0,0)"><path fill="rgb(180,143,0)" fill-opacity="1" d=" M48.53499984741211,-22.67300033569336 C48.53499984741211,-22.67300033569336 40.055999755859375,-16.985000610351562 40.055999755859375,-16.985000610351562 C38.50299835205078,-15.942999839782715 36.48400115966797,-15.864999771118164 34.84199905395508,-16.78700065612793 C33.2140007019043,-17.70599937438965 31.659000396728516,-18.73200035095215 30.194000244140625,-19.85700035095215 C30.194000244140625,-19.85700035095215 44.14500045776367,-29.216999053955078 44.14500045776367,-29.216999053955078 C44.14500045776367,-29.216999053955078 48.53499984741211,-22.67300033569336 48.53499984741211,-22.67300033569336z"/></g><g opacity="1" transform="matrix(1,0,0,1,0,0)"><path fill="rgb(255,243,26)" fill-opacity="1" d=" M35.67900085449219,-39.28799819946289 C35.67900085449219,-39.28799819946289 21.20400047302246,-29.57699966430664 21.20400047302246,-29.57699966430664 C18.964000701904297,-32.987998962402344 17.263999938964844,-36.76100158691406 16.184999465942383,-40.75699996948242 C16.184999465942383,-40.75699996948242 28.948999404907227,-49.31999969482422 28.948999404907227,-49.31999969482422 C28.948999404907227,-49.31999969482422 35.67900085449219,-39.28799819946289 35.67900085449219,-39.28799819946289z"/></g><g opacity="1" transform="matrix(1,0,0,1,0,0)"><path stroke-linecap="round" stroke-linejoin="round" fill-opacity="0" stroke="rgb(150,98,5)" stroke-opacity="1" stroke-width="5" d=" M44.143001556396484,-29.216999053955078 C44.143001556396484,-29.216999053955078 30.19300079345703,-19.858999252319336 30.19300079345703,-19.858999252319336"/></g><g opacity="0.8" transform="matrix(1,0,0,1,0,0)"><path stroke-linecap="round" stroke-linejoin="round" fill-opacity="0" stroke="rgb(150,98,5)" stroke-opacity="1" stroke-width="5" d=" M37.00400161743164,-39.858001708984375 C37.00400161743164,-39.858001708984375 22.290000915527344,-29.98699951171875 22.290000915527344,-29.98699951171875"/></g></g><g opacity="1" transform="matrix(1,0,0,1,0,0)"><path stroke-linecap="round" stroke-linejoin="round" fill-opacity="0" stroke="rgb(193,122,8)" stroke-opacity="1" stroke-width="5" d=" M34.84400177001953,-16.78700065612793 C34.84400177001953,-16.78700065612793 34.84400177001953,-16.78700065612793 34.84400177001953,-16.78700065612793 C23.966999053955078,-22.90999984741211 16.641000747680664,-33.83000183105469 15.10099983215332,-46.21699905395508 C15.10099983215332,-46.21699905395508 15.10099983215332,-46.21699905395508 15.10099983215332,-46.21699905395508 C14.869000434875488,-48.08100128173828 15.706000328063965,-49.91699981689453 17.266000747680664,-50.9630012512207 C17.266000747680664,-50.9630012512207 25.740999221801758,-56.64799880981445 25.740999221801758,-56.64799880981445 C25.740999221801758,-56.64799880981445 48.53099822998047,-22.676000595092773 48.53099822998047,-22.676000595092773 C48.53099822998047,-22.676000595092773 40.05699920654297,-16.990999221801758 40.05699920654297,-16.990999221801758 C38.49700164794922,-15.944999694824219 36.48099899291992,-15.866000175476074 34.84400177001953,-16.78700065612793z"/></g><g opacity="1" transform="matrix(1,0,0,1,0,0)"><path stroke-linecap="round" stroke-linejoin="round" fill-opacity="0" stroke="rgb(170,101,0)" stroke-opacity="1" stroke-width="5" d=" M32.50299835205078,-18.214000701904297 C24.499000549316406,-23.483999252319336 18.719999313354492,-31.48200035095215 16.20199966430664,-40.6619987487793 C15.913999557495117,-41.709999084472656 15.668999671936035,-42.77399826049805 15.468000411987305,-43.85100173950195"/></g></g><g opacity="1" transform="matrix(1,0,0,1,0,0)"><path stroke-linecap="round" stroke-linejoin="round" fill-opacity="0" stroke="rgb(124,68,0)" stroke-opacity="1" stroke-width="5" d=" M23.986000061035156,-31.033000946044922 C23.986000061035156,-31.033000946044922 16.15399932861328,-25.79199981689453 16.15399932861328,-25.79199981689453"/></g></g><g opacity="1" transform="matrix(1,0,0,1,0,0)"><g opacity="1" transform="matrix(1,0,0,1,0,0)"><path fill="rgb(65,225,229)" fill-opacity="1" d=" M95.59300231933594,-34.303001403808594 C117.14399719238281,-54.34000015258789 163.8470001220703,-102.89900207519531 153.97500610351562,-118.33000183105469 C144.75,-132.75 80.9280014038086,-108.322998046875 54.21500015258789,-95.98100280761719 C27.45599937438965,-83.61799621582031 19.25,-60.25 35.152000427246094,-36.80799865722656 C49.9630012512207,-14.975000381469727 74.00499725341797,-14.232000350952148 95.59300231933594,-34.303001403808594z"/></g><g opacity="1" transform="matrix(1,0,0,1,0,0)"><g opacity="1" transform="matrix(1,0,0,1,0,0)"><g opacity="1" transform="matrix(1,0,0,1,106.5,-87.25)"><path fill="rgb(110,255,255)" fill-opacity="1" d=" M-35.78799819946289,-17.636999130249023 C-27.5,-20.75 -10.562000274658203,-14.50100040435791 -0.49000000953674316,1.2130000591278076 C9.581999778747559,16.927000045776367 11.687000274658203,35.380001068115234 4.059000015258789,40.26900100708008 C-3.569000005722046,45.15800094604492 -13.5,38.25 -28.114999771118164,18.917999267578125 C-39.37099838256836,4.0289998054504395 -41.867000579833984,-15.354000091552734 -35.78799819946289,-17.636999130249023z"/></g><g opacity="1" transform="matrix(1,0,0,1,106.5,-87.25)"><path fill="rgb(65,225,229)" fill-opacity="1" d=" M-22.118999481201172,-20.983999252319336 C-15.543000221252441,-25.198999404907227 28.392000198364258,-34.92399978637695 36.055999755859375,-23.46299934387207 C45,-10.088000297546387 19.273000717163086,26.35700035095215 12.696999549865723,30.57200050354004 C6.120999813079834,34.7869987487793 -5.25,33.25 -18.805999755859375,13.425000190734863 C-32.14099884033203,-6.077000141143799 -28.69499969482422,-16.768999099731445 -22.118999481201172,-20.983999252319336z"/></g></g><g opacity="1" transform="matrix(1,0,0,1,0,0)"><g opacity="1" transform="matrix(1,0,0,1,106.5,-87.25)"><path fill="rgb(110,255,255)" fill-opacity="1" d=" M-12.979000091552734,-26.259000778198242 C-6.236999988555908,-30.579999923706055 6.446000099182129,-22.823999404907227 15.347999572753906,-8.9350004196167 C24.25,4.953999996185303 26,19.716999053955078 19.257999420166016,24.038000106811523 C12.515999794006348,28.358999252319336 -0.16699999570846558,20.60300064086914 -9.069000244140625,6.714000225067139 C-17.97100067138672,-7.175000190734863 -19.72100067138672,-21.937999725341797 -12.979000091552734,-26.259000778198242z"/></g><g opacity="1" transform="matrix(1,0,0,1,106.5,-87.25)"><path fill="rgb(65,225,229)" fill-opacity="1" d=" M-3.7699999809265137,-28.554000854492188 C2.0420000553131104,-32.27899932861328 40.875,-40.875 47.64899826049805,-30.7450008392334 C55.55400085449219,-18.92300033569336 29.832000732421875,11.079000473022461 24.020000457763672,14.803999900817871 C18.20800018310547,18.52899932861328 7.275000095367432,11.843000411987305 -0.39899998903274536,-0.12999999523162842 C-8.072999954223633,-12.102999687194824 -9.581999778747559,-24.82900047302246 -3.7699999809265137,-28.554000854492188z"/></g></g></g><g opacity="1" transform="matrix(1,0,0,1,0,0)"><path stroke-linecap="butt" stroke-linejoin="round" fill-opacity="0" stroke="rgb(6,111,114)" stroke-opacity="1" stroke-width="8" d=" M95.59300231933594,-34.303001403808594 C117.14399719238281,-54.34000015258789 163.8470001220703,-102.89900207519531 153.97500610351562,-118.33000183105469 C144.75,-132.75 80.9280014038086,-108.322998046875 54.21500015258789,-95.98100280761719 C27.45599937438965,-83.61799621582031 19.25,-60.25 35.152000427246094,-36.80799865722656 C49.9630012512207,-14.975000381469727 74.00499725341797,-14.232000350952148 95.59300231933594,-34.303001403808594z"/></g><g opacity="1" transform="matrix(1,0,0,1,0,0)"><path stroke-linecap="round" stroke-linejoin="round" fill-opacity="0" stroke="rgb(3,86,86)" stroke-opacity="1" stroke-width="8" d=" M30.240999221801758,-74.41100311279297 C24.885000228881836,-63.20399856567383 26.19099998474121,-50.018001556396484 35.152000427246094,-36.80799865722656 C41.93899917602539,-26.80299949645996 50.665000915527344,-21.226999282836914 60.20500183105469,-20.05299949645996"/></g><g opacity="1" transform="matrix(1,0,0,1,0,0)"><g opacity="0.4" transform="matrix(1,0,0,1,0,0)"><path fill="rgb(3,99,107)" fill-opacity="1" d=" M95.59300231933594,-34.303001403808594 C117.14399719238281,-54.34000015258789 163.8470001220703,-102.89900207519531 153.97500610351562,-118.33000183105469 C144.75,-132.75 80.9280014038086,-108.322998046875 54.21500015258789,-95.98100280761719 C27.45599937438965,-83.61799621582031 19.25,-60.25 35.152000427246094,-36.80799865722656 C49.9630012512207,-14.975000381469727 74.00499725341797,-14.232000350952148 95.59300231933594,-34.303001403808594z M80.1500015258789,-43.54899978637695 C63.59299850463867,-28.98200035095215 45.15399932861328,-29.520999908447266 33.79399871826172,-45.367000579833984 C21.597999572753906,-62.38100051879883 30.892000198364258,-74.84100341796875 51.415000915527344,-83.81400299072266 C71.90399932861328,-92.77200317382812 117.85299682617188,-115 124.9280014038086,-104.53500366210938 C132.5,-93.33499908447266 96.68000030517578,-58.090999603271484 80.1500015258789,-43.54899978637695z"/></g><g opacity="1" transform="matrix(1,0,0,1,0,0)"><g opacity="0.2" transform="matrix(1,0,0,1,0,0)"><path stroke-linecap="round" stroke-linejoin="round" fill-opacity="0" stroke="rgb(255,255,255)" stroke-opacity="1" stroke-width="16" d=" M109.63600158691406,-94.13999938964844 C109.63600158691406,-94.13999938964844 81.51499938964844,-82.86299896240234 59.53099822998047,-70.0719985961914"/></g><g opacity="1" transform="matrix(1,0,0,1,0,0)"><path stroke-linecap="round" stroke-linejoin="round" fill-opacity="0" stroke="rgb(255,255,255)" stroke-opacity="1" stroke-width="6" d=" M76.3010025024414,-80.58599853515625 C80.6780014038086,-82.89800262451172 85.05400085449219,-84.73999786376953 85.05400085449219,-84.73999786376953"/></g><g opacity="1" transform="matrix(1,0,0,1,0,0)"><path stroke-linecap="round" stroke-linejoin="round" fill-opacity="0" stroke="rgb(255,255,255)" stroke-opacity="1" stroke-width="6" d=" M67.3759994506836,-75.96499633789062 C67.86599731445312,-76.23999786376953 67.33899688720703,-75.95600128173828 67.86499786376953,-76.23999786376953"/></g></g></g></g></g></g><g transform="matrix(0.9547426700592041,-0.10034730285406113,0.10034749656915665,0.9547408223152161,161.92327880859375,213.77577209472656)" opacity="1" style="display: block;"><g opacity="1" transform="matrix(1,0,0,1,0,0)"><g opacity="1" transform="matrix(1,0,0,1,0,0)"><path fill="rgb(151,225,232)" fill-opacity="1" d=" M174.2550048828125,-128.17999267578125 C184.18499755859375,-136.13299560546875 204.0780029296875,-156.18800354003906 205.97999572753906,-167.968994140625 C207.8820037841797,-179.75 164.41400146484375,-150.58900451660156 156.69500732421875,-142.25900268554688 C148.9759979248047,-133.9290008544922 157.8509979248047,-115.04299926757812 174.2550048828125,-128.17999267578125z"/></g><g opacity="1" transform="matrix(1,0,0,1,0,0)"><path fill="rgb(71,232,244)" fill-opacity="1" d=" M154.70899963378906,-131.26800537109375 C158.27699279785156,-129.10899353027344 163.56399536132812,-129.3209991455078 170.01699829101562,-134.4929962158203 C178.59800720214844,-141.35699462890625 194.59100341796875,-157.24000549316406 200.02099609375,-169.03500366210938 C204.3679962158203,-170.5070037841797 207.04299926757812,-170.25399780273438 206.53599548339844,-167.1320037841797 C204.63400268554688,-155.35499572753906 184.7429962158203,-135.3040008544922 174.8090057373047,-127.35099792480469 C163.8209991455078,-118.5459976196289 156.20599365234375,-124.11900329589844 154.70899963378906,-131.26800537109375z"/></g><g opacity="1" transform="matrix(1,0,0,1,0,0)"><path stroke-linecap="round" stroke-linejoin="round" fill-opacity="0" stroke="rgb(6,111,114)" stroke-opacity="1" stroke-width="8" d=" M174.2550048828125,-128.17999267578125 C183.61099243164062,-131.92599487304688 210.5970001220703,-161.18899536132812 206.53700256347656,-167.13900756835938 C199.81100463867188,-176.99600219726562 164.41400146484375,-150.58900451660156 156.69500732421875,-142.25900268554688 C148.9759979248047,-133.9290008544922 154.74400329589844,-120.36900329589844 174.2550048828125,-128.17999267578125z"/></g></g><g opacity="1" transform="matrix(1,0,0,1,0,0)"><g opacity="1" transform="matrix(1,0,0,1,0,0)"><path fill="rgb(12,159,163)" fill-opacity="1" d=" M171.7530059814453,-130.11399841308594 C171.7530059814453,-130.11399841308594 225.71600341796875,-118.13600158691406 226.73500061035156,-99.48600006103516 C227.802001953125,-79.96299743652344 171.4550018310547,-76.00900268554688 139.50100708007812,-82.3489990234375 C139.50100708007812,-82.3489990234375 126.8489990234375,-119.96099853515625 171.7530059814453,-130.11399841308594z"/></g><g opacity="1" transform="matrix(1,0,0,1,0,0)"><path fill="rgb(71,232,244)" fill-opacity="1" d=" M221.28199768066406,-90.88999938964844 C221.30599975585938,-91.26699829101562 221.30799865722656,-91.64199829101562 221.2899932861328,-92.0270004272461 C220.27099609375,-110.66999816894531 166.30799865722656,-122.64800262451172 166.30799865722656,-122.64800262451172 C153.98199462890625,-119.85800170898438 146.00100708007812,-115.00800323486328 140.8939971923828,-109.427001953125 C144.74000549316406,-118.41300201416016 153.46600341796875,-127.30400085449219 172.0229949951172,-131.50399780273438 C172.0229949951172,-131.50399780273438 225.98599243164062,-119.5260009765625 227.01100158691406,-100.8740005493164 C227.23300170898438,-96.91699981689453 225.0959930419922,-93.6050033569336 221.28199768066406,-90.88999938964844z"/></g><g opacity="0.3" transform="matrix(1,0,0,1,0,0)"><path fill="rgb(3,99,107)" fill-opacity="1" d=" M196.3939971923828,-81.35600280761719 C178.29400634765625,-78.56600189208984 155.74400329589844,-79.1259994506836 139.50399780273438,-82.34600067138672 C139.50399780273438,-82.34600067138672 126.84400177001953,-119.95600128173828 171.75399780273438,-130.11599731445312 C171.75399780273438,-130.11599731445312 182.10400390625,-127.81600189208984 193.82400512695312,-123.65599822998047 C193.24400329589844,-122.97599792480469 164.802001953125,-94.21099853515625 196.3939971923828,-81.35600280761719z"/></g><g opacity="1" transform="matrix(1,0,0,1,0,0)"><path stroke-linecap="round" stroke-linejoin="round" fill-opacity="0" stroke="rgb(6,111,114)" stroke-opacity="1" stroke-width="8" d=" M171.7530059814453,-130.11399841308594 C171.7530059814453,-130.11399841308594 225.71600341796875,-118.13600158691406 226.73500061035156,-99.48600006103516 C227.802001953125,-79.96299743652344 171.4550018310547,-76.00900268554688 139.50100708007812,-82.3489990234375 C139.50100708007812,-82.3489990234375 126.8489990234375,-119.96099853515625 171.7530059814453,-130.11399841308594z"/></g></g></g><g transform="matrix(0.9547426700592041,-0.10034730285406113,0.10034749656915665,0.9547408223152161,161.92327880859375,213.77577209472656)" opacity="1" style="display: block;"><g opacity="1" transform="matrix(1,0,0,1,0,0)"><g opacity="1" transform="matrix(1,0,0,1,0,0)"><path stroke-linecap="round" stroke-linejoin="round" fill-opacity="0" stroke="rgb(3,86,86)" stroke-opacity="1" stroke-width="8" d=" M154.1179962158203,-118.14199829101562"/></g><g opacity="1" transform="matrix(1,0,0,1,0,0)"><path fill="rgb(25,172,175)" fill-opacity="1" d=" M171.7530059814453,-130.11399841308594 C171.7530059814453,-130.11399841308594 180.9149932861328,-183.072998046875 159.33900451660156,-190.15499877929688 C137.76300048828125,-197.23699951171875 109.5739974975586,-146.7790069580078 114.63600158691406,-113.37100219726562 C114.63600158691406,-113.37100219726562 154.0469970703125,-118.23600006103516 154.0469970703125,-118.23600006103516 C154.0469970703125,-118.23600006103516 171.7530059814453,-130.11399841308594 171.7530059814453,-130.11399841308594z"/></g><g opacity="1" transform="matrix(1,0,0,1,0,0)"><path fill="rgb(71,232,244)" fill-opacity="1" d=" M120.04000091552734,-114.93399810791016 C120.04000091552734,-114.93399810791016 114.0790023803711,-114.197998046875 114.0790023803711,-114.197998046875 C109.01499938964844,-147.61199951171875 137.20799255371094,-198.06399536132812 158.78199768066406,-190.98199462890625 C164.0959930419922,-189.23599243164062 167.53700256347656,-184.7169952392578 169.7169952392578,-178.8820037841797 C168.4080047607422,-179.91799926757812 166.81900024414062,-180.43899536132812 165.29400634765625,-181.2740020751953 C147.85499572753906,-190.82699584960938 120.89299774169922,-156.468994140625 120.04000091552734,-114.93399810791016z"/></g><g opacity="1" transform="matrix(1,0,0,1,0,0)"><path stroke-linecap="round" stroke-linejoin="round" fill-opacity="0" stroke="rgb(6,111,114)" stroke-opacity="1" stroke-width="8" d=" M171.7530059814453,-130.11399841308594 C171.7530059814453,-130.11399841308594 180.9149932861328,-183.072998046875 159.33900451660156,-190.15499877929688 C137.76300048828125,-197.23699951171875 105.84200286865234,-142.03799438476562 114.63600158691406,-113.37100219726562 C116.58000183105469,-107.03299713134766 154.0469970703125,-118.23600006103516 154.0469970703125,-118.23600006103516 C154.0469970703125,-118.23600006103516 171.7530059814453,-130.11399841308594 171.7530059814453,-130.11399841308594z"/></g><g opacity="1" transform="matrix(1,0,0,1,0,0)"><path stroke-linecap="round" stroke-linejoin="round" fill-opacity="0" stroke="rgb(3,86,86)" stroke-opacity="1" stroke-width="8" d=" M118.99500274658203,-111.46700286865234 C129.31300354003906,-110.84100341796875 154.0469970703125,-118.23600006103516 154.0469970703125,-118.23600006103516 C154.0469970703125,-118.23600006103516 171.7530059814453,-130.11399841308594 171.7530059814453,-130.11399841308594"/></g></g><g opacity="1" transform="matrix(1,0,0,1,0,0)"><g opacity="1" transform="matrix(1,0,0,1,0,0)"><path fill="rgb(7,132,135)" fill-opacity="1" d=" M171.7530059814453,-130.11399841308594 C171.7530059814453,-130.11399841308594 192.69900512695312,-126.81800079345703 189.9739990234375,-116.91200256347656 C187.24899291992188,-107.00599670410156 159.06500244140625,-92.53299713134766 125.80699920654297,-89.60900115966797 C125.80699920654297,-89.60900115966797 154.0469970703125,-118.23600006103516 154.0469970703125,-118.23600006103516 C154.0469970703125,-118.23600006103516 171.7530059814453,-130.11399841308594 171.7530059814453,-130.11399841308594z"/></g><g opacity="1" transform="matrix(1,0,0,1,0,0)"><path fill="rgb(71,232,244)" fill-opacity="1" d=" M126.36199951171875,-88.78099822998047 C126.36199951171875,-88.78099822998047 135.14999389648438,-97.68699645996094 135.14999389648438,-97.68699645996094 C161.03199768066406,-104.42900085449219 182.56500244140625,-116.2020034790039 184.85699462890625,-124.54299926757812 C184.9199981689453,-124.75399780273438 184.96099853515625,-124.96299743652344 184.99400329589844,-125.16500091552734 C188.77499389648438,-123.10099792480469 191.6540069580078,-120.15599822998047 190.53399658203125,-116.08100128173828 C187.81100463867188,-106.17500305175781 159.6219940185547,-91.70600128173828 126.36199951171875,-88.78099822998047z"/></g><g opacity="1" transform="matrix(1,0,0,1,0,0)"><path stroke-linecap="round" stroke-linejoin="round" fill-opacity="0" stroke="rgb(6,111,114)" stroke-opacity="1" stroke-width="8" d=" M171.7530059814453,-130.11399841308594 C171.7530059814453,-130.11399841308594 189.13299560546875,-128.51199340820312 190.2469940185547,-118.29900360107422 C191.58700561523438,-106.01100158691406 129.4239959716797,-82.28099822998047 125.80699920654297,-89.60900115966797 C122.21800231933594,-96.88099670410156 154.0469970703125,-118.23600006103516 154.0469970703125,-118.23600006103516 C154.0469970703125,-118.23600006103516 171.7530059814453,-130.11399841308594 171.7530059814453,-130.11399841308594z"/></g><g opacity="1" transform="matrix(1,0,0,1,0,0)"><path stroke-linecap="round" stroke-linejoin="round" fill-opacity="0" stroke="rgb(3,86,86)" stroke-opacity="1" stroke-width="8" d=" M127,-94.82599639892578 C132.84300231933594,-104.01000213623047 154.0469970703125,-118.23600006103516 154.0469970703125,-118.23600006103516 C154.0469970703125,-118.23600006103516 171.7530059814453,-130.11399841308594 171.7530059814453,-130.11399841308594"/></g></g></g></g></svg>