<svg xmlns="http://www.w3.org/2000/svg" xmlns:xlink="http://www.w3.org/1999/xlink" viewBox="0 0 512 512" width="512" height="512" preserveAspectRatio="xMidYMid meet" style="width: 100%; height: 100%; transform: translate3d(0px, 0px, 0px); content-visibility: visible;"><defs><clipPath id="__lottie_element_2"><rect width="512" height="512" x="0" y="0"/></clipPath><linearGradient id="__lottie_element_9" spreadMethod="pad" gradientUnits="userSpaceOnUse" x1="-135" y1="-66" x2="-0.4059999883174896" y2="137.18600463867188"><stop offset="9%" stop-color="rgb(197,7,7)"/><stop offset="49%" stop-color="rgb(147,4,4)"/><stop offset="100%" stop-color="rgb(97,1,0)"/></linearGradient><linearGradient id="__lottie_element_10" spreadMethod="pad" gradientUnits="userSpaceOnUse" x1="155.6269989013672" y1="51.0629997253418" x2="276.4639892578125" y2="79.83000183105469"><stop offset="0%" stop-color="rgb(255,19,21)"/><stop offset="44%" stop-color="rgb(215,24,26)"/><stop offset="100%" stop-color="rgb(176,29,30)"/></linearGradient><linearGradient id="__lottie_element_11" spreadMethod="pad" gradientUnits="userSpaceOnUse" x1="155.6269989013672" y1="51.0629997253418" x2="276.4639892578125" y2="79.83000183105469"><stop offset="0%" stop-color="rgb(255,19,21)"/><stop offset="44%" stop-color="rgb(215,24,26)"/><stop offset="100%" stop-color="rgb(176,29,30)"/></linearGradient><linearGradient id="__lottie_element_12" spreadMethod="pad" gradientUnits="userSpaceOnUse" x1="155.6269989013672" y1="51.0629997253418" x2="276.4639892578125" y2="79.83000183105469"><stop offset="0%" stop-color="rgb(255,19,21)"/><stop offset="44%" stop-color="rgb(215,24,26)"/><stop offset="100%" stop-color="rgb(176,29,30)"/></linearGradient><linearGradient id="__lottie_element_16" spreadMethod="pad" gradientUnits="userSpaceOnUse"><stop/><stop/><stop/><stop/><stop/></linearGradient></defs><g clip-path="url(#__lottie_element_2)"><g transform="matrix(0.5,0,0,0.5,273.25,164.25)" opacity="1" style="display: block;"><g opacity="1" transform="matrix(1,0,0,1,0,0)"><path fill="url(#__lottie_element_9)" fill-opacity="1" d=" M75.22899627685547,-102.75800323486328 C4.25,-174.25 -96.25,-155.25 -144.5229949951172,-106.87100219726562 C-144.5229949951172,-106.87100219726562 -146.04100036621094,-105.38899993896484 -146.04100036621094,-105.38899993896484 C-146.04100036621094,-105.38899993896484 -146.71299743652344,-105.21700286865234 -146.71299743652344,-105.21700286865234 C-208.5,-28.5 -195.08200073242188,61.96099853515625 -144.9969940185547,115.73300170898438 C-89.9280014038086,174.8560028076172 17.138999938964844,178.88800048828125 74.8280029296875,121.1989974975586 C74.8280029296875,121.1989974975586 77.65599822998047,118.4020004272461 77.65599822998047,118.4020004272461 C77.65599822998047,118.4020004272461 78.23200225830078,117.38400268554688 78.23200225830078,117.38400268554688 C124.75,71.25 147.7239990234375,-29.73900032043457 75.22899627685547,-102.75800323486328z"/></g><g opacity="1" transform="matrix(1,0,0,1,0,0)"><path stroke-linecap="butt" stroke-linejoin="round" fill-opacity="0" stroke="rgb(112,0,0)" stroke-opacity="1" stroke-width="8" d=" M75.22899627685547,-102.75800323486328 C2.4719998836517334,-175.51499938964844 -97,-153 -144.5229949951172,-106.87100219726562 C-144.5229949951172,-106.87100219726562 -146.04100036621094,-105.38899993896484 -146.04100036621094,-105.38899993896484 C-146.04100036621094,-105.38899993896484 -146.71299743652344,-105.21700286865234 -146.71299743652344,-105.21700286865234 C-208.5,-28.5 -191.86500549316406,68.86499786376953 -144.9969940185547,115.73300170898438 C-83.16400146484375,177.5659942626953 15.638999938964844,180.38800048828125 74.8280029296875,121.1989974975586 C74.8280029296875,121.1989974975586 77.65599822998047,118.4020004272461 77.65599822998047,118.4020004272461 C77.65599822998047,118.4020004272461 78.23200225830078,117.38400268554688 78.23200225830078,117.38400268554688 C119.75,79.25 147.98599243164062,-30 75.22899627685547,-102.75800323486328z"/></g><g opacity="1" transform="matrix(1,0,0,1,0,0)"><path stroke-linecap="round" stroke-linejoin="round" fill-opacity="0" stroke="rgb(81,0,0)" stroke-opacity="1" stroke-width="8" d=" M-118.9229965209961,136.7239990234375 C-74.5,171.5 16.263999938964844,179.76300048828125 74.8280029296875,121.1989974975586 C74.8280029296875,121.1989974975586 77.65599822998047,118.4020004272461 77.65599822998047,118.4020004272461 C77.65599822998047,118.4020004272461 78.23200225830078,117.38400268554688 78.23200225830078,117.38400268554688"/></g><g opacity="1" transform="matrix(1,0,0,1,0,0)"><g opacity="1" transform="matrix(1,0,0,1,0,0)"><path fill="url(#__lottie_element_10)" fill-opacity="1" d=" M77.14299774169922,-102.62100219726562 C138.10499572753906,-39.92599868774414 137.72799682617188,59.78499984741211 76.29900360107422,120.08899688720703 C14.869999885559082,180.39300537109375 -84.40399932861328,178.50900268554688 -145.30999755859375,115.75900268554688 C-198.4010009765625,61.06100082397461 -205.8939971923828,-46.64699935913086 -144.46499633789062,-106.95099639892578 C-83.03600311279297,-167.2550048828125 16.180999755859375,-165.3159942626953 77.14299774169922,-102.62100219726562z"/><path stroke-linecap="butt" stroke-linejoin="round" fill-opacity="0" stroke="rgb(132,3,4)" stroke-opacity="1" stroke-width="8" d=" M77.14299774169922,-102.62100219726562 C138.10499572753906,-39.92599868774414 137.72799682617188,59.78499984741211 76.29900360107422,120.08899688720703 C14.869999885559082,180.39300537109375 -84.40399932861328,178.50900268554688 -145.30999755859375,115.75900268554688 C-198.4010009765625,61.06100082397461 -205.8939971923828,-46.64699935913086 -144.46499633789062,-106.95099639892578 C-83.03600311279297,-167.2550048828125 16.180999755859375,-165.3159942626953 77.14299774169922,-102.62100219726562z"/></g><g opacity="1" transform="matrix(1,0,0,1,0,0)"><path fill="rgb(254,255,255)" fill-opacity="1" d=" M54.38999938964844,-79.2959976196289 C101.44599914550781,-32.2400016784668 101.58100128173828,42.41299819946289 52.22200012207031,91.77200317382812 C1.8009999990463257,142.1929931640625 -72.00900268554688,138.16700744628906 -118.4010009765625,90.45600128173828 C-164.79299926757812,42.744998931884766 -164.75999450683594,-33.39500045776367 -117.75800323486328,-79.0250015258789 C-63.417999267578125,-131.7779998779297 12.378000259399414,-121.30799865722656 54.38999938964844,-79.2959976196289z"/></g><g opacity="1" transform="matrix(1,0,0,1,0,0)"><path fill="url(#__lottie_element_11)" fill-opacity="1" d=" M34.345001220703125,-59.744998931884766 C68.24099731445312,-25.849000930786133 72.20999908447266,33.194000244140625 34.46500015258789,70.93900299072266 C-4.5980000495910645,110.00199890136719 -62.27899932861328,107.38200378417969 -98.22000122070312,70.41899871826172 C-134.16099548339844,33.45600128173828 -132.46800231933594,-24.016000747680664 -96.58200073242188,-59.902000427246094 C-60.069000244140625,-96.41500091552734 -2.1110000610351562,-96.20099639892578 34.345001220703125,-59.744998931884766z"/></g><g opacity="1" transform="matrix(1,0,0,1,0,0)"><path fill="rgb(251,255,253)" fill-opacity="1" d=" M13.29699993133545,-39.36399841308594 C40.75,-11.25 36.75,29 11.657999992370605,53.8849983215332 C-11.456000328063965,76.80899810791016 -54.090999603271484,77.53399658203125 -79.18399810791016,51.72800064086914 C-104.2770004272461,25.922000885009766 -103.24600219726562,-14.619999885559082 -77.96099853515625,-39.44200134277344 C-52.67599868774414,-64.26399993896484 -11.850000381469727,-65.11699676513672 13.29699993133545,-39.36399841308594z"/></g><g opacity="1" transform="matrix(1,0,0,1,0,0)"><path fill="url(#__lottie_element_12)" fill-opacity="1" d=" M-6.3460001945495605,-19.75 C8.031999588012695,-4.9629998207092285 7.942999839782715,18.55500030517578 -6.545000076293945,32.77799987792969 C-21.033000946044922,47.000999450683594 -44.435001373291016,46.54399871826172 -58.8129997253418,31.756999969482422 C-73.19100189208984,16.969999313354492 -73.10299682617188,-6.547999858856201 -58.61399841308594,-20.770999908447266 C-44.125,-34.99399948120117 -20.724000930786133,-34.5369987487793 -6.3460001945495605,-19.75z"/></g><g opacity="1" transform="matrix(1,0,0,1,0,0)"><path stroke-linecap="round" stroke-linejoin="round" fill-opacity="0" stroke="rgb(247,141,141)" stroke-opacity="1" stroke-width="8" d="M0 0"/></g><g opacity="1" transform="matrix(1,0,0,1,0,0)"><path stroke-linecap="round" stroke-linejoin="round" fill-opacity="0" stroke="rgb(247,141,141)" stroke-opacity="1" stroke-width="8" d="M0 0"/></g></g></g><g style="display: none;"><g><path fill="url(#__lottie_element_16)"/></g></g><g transform="matrix(0.903647780418396,0,0,0.903647780418396,286.49810791015625,161.99066162109375)" opacity="1" style="display: block;"><g opacity="1" transform="matrix(-0.5735764503479004,0.8191520571708679,-0.8191520571708679,-0.5735764503479004,-46.562347412109375,37.01282501220703)"><g opacity="1" transform="matrix(1,0,0,1,0,0)"><g opacity="1" transform="matrix(1,0,0,1,0,0)"><g opacity="1" transform="matrix(1,0,0,1,0,0)"><path stroke-linecap="round" stroke-linejoin="round" fill-opacity="0" stroke="rgb(255,221,0)" stroke-opacity="1" stroke-width="8" d=" M-16.767274856567383,-3.772329807281494 C-16.767274856567383,-3.772329807281494 -31.06800079345703,5.809000015258789 -31.06800079345703,5.809000015258789"/></g><g opacity="1" transform="matrix(1,0,0,1,1.434000015258789,2.0480000972747803)"><path stroke-linecap="round" stroke-linejoin="round" fill-opacity="0" stroke="rgb(150,98,5)" stroke-opacity="1" stroke-width="5" d=" M-19.397859573364258,-7.558122158050537 C-19.397859573364258,-7.558122158050537 -33.698585510253906,2.0232441425323486 -33.698585510253906,2.0232441425323486"/></g></g><g opacity="1" transform="matrix(1,0,0,1,0,0)"><g opacity="1" transform="matrix(1,0,0,1,0,0)"><path fill="rgb(220,184,0)" fill-opacity="1" d=" M-13.501218795776367,8.484917640686035 C-13.501218795776367,8.484917640686035 -13.501218795776367,8.484917640686035 -13.501218795776367,8.484917640686035 C-26.74856185913086,15.87590217590332 -38.988677978515625,-2.9579243659973145 -27.092748641967773,-11.812737464904785 C-27.092748641967773,-11.812737464904785 -27.092748641967773,-11.812737464904785 -27.092748641967773,-11.812737464904785 C-27.145565032958984,-12.016702651977539 -26.936599731445312,-12.398568153381348 -26.655370712280273,-12.508691787719727 C-26.655370712280273,-12.508691787719727 -25.256927490234375,-13.451066970825195 -25.256927490234375,-13.451066970825195 C-25.256927490234375,-13.451066970825195 -11.243891716003418,7.43796968460083 -11.243891716003418,7.43796968460083 C-11.243891716003418,7.43796968460083 -12.689239501953125,8.404725074768066 -12.689239501953125,8.404725074768066 C-12.98121452331543,8.527520179748535 -13.233375549316406,8.568839073181152 -13.501218795776367,8.484917640686035z"/></g><g opacity="1" transform="matrix(1,0,0,1,0,0)"><path fill="rgb(255,243,26)" fill-opacity="1" d=" M-28.13587188720703,2.6254019737243652 C-28.13587188720703,2.6254019737243652 -30.067691802978516,3.8997583389282227 -30.067691802978516,3.8997583389282227 C-33.64607620239258,-0.4473237097263336 -32.00922393798828,-9.323308944702148 -26.945213317871094,-11.759904861450195 C-26.87994956970215,-12.137894630432129 -26.814481735229492,-12.376224517822266 -26.562667846679688,-12.559523582458496 C-26.562667846679688,-12.559523582458496 -25.371803283691406,-13.309645652770996 -25.371803283691406,-13.309645652770996 C-30.259777069091797,-10.268016815185547 -31.83792495727539,-1.8503918647766113 -28.13587188720703,2.6254019737243652z"/></g><g opacity="1" transform="matrix(1,0,0,1,0,0)"><path stroke-linecap="round" stroke-linejoin="round" fill-opacity="0" stroke="rgb(170,101,0)" stroke-opacity="1" stroke-width="5" d=" M-13.514219284057617,8.49295425415039 C-13.514219284057617,8.49295425415039 -13.514219284057617,8.49295425415039 -13.514219284057617,8.49295425415039 C-26.946292877197266,15.878157615661621 -38.99296951293945,-3.053370952606201 -27.105710983276367,-11.804737091064453 C-27.105710983276367,-11.804737091064453 -27.105710983276367,-11.804737091064453 -27.105710983276367,-11.804737091064453 C-27.09991455078125,-12.064352989196777 -27.035484313964844,-12.348589897155762 -26.664371490478516,-12.502691268920898 C-26.664371490478516,-12.502691268920898 -25.256927490234375,-13.451066970825195 -25.256927490234375,-13.451066970825195 C-25.256927490234375,-13.451066970825195 -11.243891716003418,7.43796968460083 -11.243891716003418,7.43796968460083 C-11.243891716003418,7.43796968460083 -12.698240280151367,8.410724639892578 -12.698240280151367,8.410724639892578 C-12.934564590454102,8.5052490234375 -13.28442668914795,8.570021629333496 -13.514219284057617,8.49295425415039z"/></g></g><g opacity="1" transform="matrix(1,0,0,1,0,0)"><g opacity="1" transform="matrix(1,0,0,1,0,0)"><path fill="rgb(220,184,0)" fill-opacity="1" d=" M-7.089883804321289,13.586779594421387 C-7.089883804321289,13.586779594421387 -7.089883804321289,13.586742401123047 -7.089883804321289,13.586742401123047 C-26.6962890625,23.452571868896484 -46.53870391845703,-4.941946983337402 -29.106822967529297,-19.32545280456543 C-29.106822967529297,-19.32545280456543 -29.106822967529297,-19.32545280456543 -29.106822967529297,-19.32545280456543 C-29.14052963256836,-19.74774169921875 -28.951099395751953,-20.139066696166992 -28.58572006225586,-20.29815101623535 C-28.58572006225586,-20.29815101623535 -26.68930435180664,-21.629674911499023 -26.68930435180664,-21.629674911499023 C-26.68930435180664,-21.629674911499023 -3.898303508758545,12.341324806213379 -3.898303508758545,12.341324806213379 C-3.898303508758545,12.341324806213379 -5.843588829040527,13.625015258789062 -5.843588829040527,13.625015258789062 C-6.264655113220215,13.782173156738281 -6.647503852844238,13.871917724609375 -7.089883804321289,13.586779594421387z"/></g><g opacity="1" transform="matrix(1,0,0,1,0,0)"><g opacity="1" transform="matrix(1,0,0,1,0,0)"><path fill="rgb(180,143,0)" fill-opacity="1" d=" M-11.069574356079102,13.989742279052734 C-10.980945587158203,13.997523307800293 -13.394760131835938,15.259601593017578 -13.394760131835938,15.259601593017578 C-14.120829582214355,15.68212604522705 -15.130749702453613,15.893588066101074 -16.897430419921875,15.269636154174805 C-18.65107536315918,14.649646759033203 -20.634693145751953,13.957710266113281 -22.264280319213867,13.108378410339355 C-22.264280319213867,13.108378410339355 -18.839401245117188,10.66872787475586 -18.839401245117188,10.66872787475586 C-18.839401245117188,10.66872787475586 -15.172104835510254,13.651752471923828 -11.069574356079102,13.989742279052734z"/></g><g opacity="1" transform="matrix(1,0,0,1,0,0)"><path fill="rgb(255,243,26)" fill-opacity="1" d=" M-27.720348358154297,1.3778995275497437 C-27.627830505371094,1.54833984375 -31.32245635986328,3.745820999145508 -31.32245635986328,3.745820999145508 C-33.56245422363281,0.334820955991745 -34.575767517089844,-4.47252893447876 -34.51519012451172,-8.559121131896973 C-34.51519012451172,-8.559121131896973 -31.397768020629883,-10.686858177185059 -31.397768020629883,-10.686858177185059 C-31.397768020629883,-10.686858177185059 -30.44368553161621,-3.652862787246704 -27.720348358154297,1.3778995275497437z"/></g><g opacity="1" transform="matrix(1,0,0,1,0,0)"><path stroke-linecap="round" stroke-linejoin="round" fill-opacity="0" stroke="rgb(150,98,5)" stroke-opacity="1" stroke-width="5" d=" M-18.841402053833008,10.667764663696289 C-18.841402053833008,10.667764663696289 -22.26527976989746,13.106378555297852 -22.26527976989746,13.106378555297852"/></g><g opacity="0.8" transform="matrix(1,0,0,1,0,0)"><path stroke-linecap="round" stroke-linejoin="round" fill-opacity="0" stroke="rgb(150,98,5)" stroke-opacity="1" stroke-width="5" d=" M-26.91252326965332,0.9959020614624023 C-26.91252326965332,0.9959020614624023 -30.2364559173584,3.3368208408355713 -30.2364559173584,3.3368208408355713"/></g></g><g opacity="1" transform="matrix(1,0,0,1,0,0)"><path stroke-linecap="round" stroke-linejoin="round" fill-opacity="0" stroke="rgb(193,122,8)" stroke-opacity="1" stroke-width="5" d=" M-7.089883804321289,13.586779594421387 C-7.089883804321289,13.586779594421387 -7.089883804321289,13.586742401123047 -7.089883804321289,13.586742401123047 C-27.276500701904297,23.452571868896484 -46.15189743041992,-4.941946983337402 -29.106822967529297,-19.32545280456543 C-29.106822967529297,-19.32545280456543 -29.106822967529297,-19.32545280456543 -29.106822967529297,-19.32545280456543 C-29.116113662719727,-19.74774169921875 -28.975515365600586,-20.090234756469727 -28.58572006225586,-20.29815101623535 C-28.58572006225586,-20.29815101623535 -26.68930435180664,-21.629674911499023 -26.68930435180664,-21.629674911499023 C-26.68930435180664,-21.629674911499023 -3.898303508758545,12.341324806213379 -3.898303508758545,12.341324806213379 C-3.898303508758545,12.341324806213379 -5.843588829040527,13.625015258789062 -5.843588829040527,13.625015258789062 C-6.2881083488464355,13.831005096435547 -6.671920299530029,13.824048042297363 -7.089883804321289,13.586779594421387z"/></g><g opacity="1" transform="matrix(1,0,0,1,0,0)"><path stroke-linecap="round" stroke-linejoin="round" fill-opacity="0" stroke="rgb(170,101,0)" stroke-opacity="1" stroke-width="5" d=" M-19.740970611572266,14.226385116577148 C-28.45014762878418,10.62777328491211 -34.62653350830078,0.9330421090126038 -34.52445983886719,-8.465121269226074 C-34.512447357177734,-9.538464546203613 -34.45747375488281,-10.615099906921387 -34.35557174682617,-11.692100524902344"/></g></g><g opacity="1" transform="matrix(1,0,0,1,0,0)"><path stroke-linecap="round" stroke-linejoin="round" fill-opacity="0" stroke="rgb(124,68,0)" stroke-opacity="1" stroke-width="5" d=" M-28.29360580444336,2.6528537273406982 C-28.29360580444336,2.6528537273406982 -33.20374298095703,5.39535665512085 -33.20374298095703,5.39535665512085"/></g></g><g opacity="1" transform="matrix(1,0,0,1,0,0)"><g opacity="1" transform="matrix(1,0,0,1,0,0)"><path fill="rgb(65,225,229)" fill-opacity="1" d=" M10.833426475524902,23.238759994506836 C31.08824920654297,10.256035804748535 44.66787338256836,-20.35186195373535 35.69842529296875,-35.78871536254883 C26.109107971191406,-52.355648040771484 -4.644204139709473,-53.90204620361328 -26.5964298248291,-43.09845733642578 C-46.96828842163086,-33.091426849365234 -55.50251770019531,-11.329272270202637 -43.537879943847656,10.623147964477539 C-32.79513931274414,30.27012825012207 -8.411311149597168,35.66941833496094 10.833426475524902,23.238759994506836z"/></g><g opacity="1" transform="matrix(1,0,0,1,0,0)"><g opacity="1" transform="matrix(1,0,0,1,0,0)"><g opacity="1" transform="matrix(1,0,0,1,106.5,-87.25)"><path fill="rgb(110,255,255)" fill-opacity="1" d=" M-126.1845703125,46.57319641113281 C-112.58820343017578,39.06795883178711 -94.08431243896484,44.2515869140625 -85.45037841796875,59.30022048950195 C-76.81645202636719,74.3488540649414 -80.26954650878906,93.89942169189453 -93.7103271484375,101.82162475585938 C-107.15110778808594,109.74382019042969 -124.42366027832031,103.88848876953125 -134.1254119873047,87.98973083496094 C-143.03794860839844,73.1348876953125 -139.26170349121094,53.883567810058594 -126.1845703125,46.57319641113281z"/></g><g opacity="1" transform="matrix(1,0,0,1,106.5,-87.25)"><path fill="rgb(65,225,229)" fill-opacity="1" d=" M-121.74103546142578,47.75408172607422 C-109.96107482910156,40.815147399902344 -86.14144897460938,42.07172775268555 -78.63355255126953,55.081058502197266 C-70.8251724243164,68.53997802734375 -80.73247528076172,90.7662353515625 -92.51243591308594,97.70516967773438 C-104.29238891601562,104.64410400390625 -120.50932312011719,100.6466064453125 -129.40086364746094,85.6723861694336 C-138.24021911621094,70.77433776855469 -133.52099609375,54.69301223754883 -121.74103546142578,47.75408172607422z"/></g></g><g opacity="1" transform="matrix(1,0,0,1,0,0)"><g opacity="1" transform="matrix(1,0,0,1,106.5,-87.25)"><path fill="rgb(110,255,255)" fill-opacity="1" d=" M-118.98255157470703,47.93183517456055 C-107.64242553710938,41.24396514892578 -92.49799346923828,46.176513671875 -85.1570053100586,58.95134735107422 C-77.81600952148438,71.72618103027344 -80.71186065673828,87.93799591064453 -92.05199432373047,94.62586212158203 C-103.39212799072266,101.31373596191406 -118.59513092041016,95.94698333740234 -125.93612670898438,83.17214965820312 C-133.27711486816406,70.3973159790039 -130.32269287109375,54.61970520019531 -118.98255157470703,47.93183517456055z"/></g><g opacity="1" transform="matrix(1,0,0,1,106.5,-87.25)"><path fill="rgb(65,225,229)" fill-opacity="1" d=" M-115.62631225585938,49.19979476928711 C-105.68840026855469,43.34208679199219 -86.38154602050781,44.759971618652344 -80.0104751586914,55.78071975708008 C-73.373779296875,67.19879150390625 -81.85069274902344,84.81814575195312 -91.78860473632812,90.67584991455078 C-101.72652435302734,96.53355407714844 -115.1190185546875,91.996826171875 -121.70130920410156,80.54383850097656 C-128.28358459472656,69.09085083007812 -125.5642318725586,55.057498931884766 -115.62631225585938,49.19979476928711z"/></g></g></g><g opacity="1" transform="matrix(1,0,0,1,0,0)"><path stroke-linecap="butt" stroke-linejoin="round" fill-opacity="0" stroke="rgb(6,111,114)" stroke-opacity="1" stroke-width="8" d=" M10.833426475524902,23.238759994506836 C31.08824920654297,10.256035804748535 44.66787338256836,-20.35186195373535 35.69842529296875,-35.78871536254883 C26.109107971191406,-52.355648040771484 -4.644204139709473,-53.90204620361328 -26.5964298248291,-43.09845733642578 C-46.96828842163086,-33.091426849365234 -55.63338088989258,-11.262840270996094 -43.537879943847656,10.623147964477539 C-32.79513931274414,29.98687744140625 -8.411311149597168,35.66941833496094 10.833426475524902,23.238759994506836z"/></g><g opacity="1" transform="matrix(1,0,0,1,0,0)"><path stroke-linecap="round" stroke-linejoin="round" fill-opacity="0" stroke="rgb(3,86,86)" stroke-opacity="1" stroke-width="8" d=" M-45.29899978637695,7.119999885559082 C-44.77000045776367,8.28600025177002 -44.183998107910156,9.454999923706055 -43.53799819946289,10.623000144958496 C-41.10100173950195,15.015999794006348 -37.96099853515625,18.704999923706055 -34.3390007019043,21.638999938964844"/></g><g opacity="1" transform="matrix(0.3907311260700226,-0.9205048680305481,-0.9205048680305481,-0.3907311260700226,-14.152276992797852,-21.381755828857422)"><g opacity="0.4" transform="matrix(1,0,0,1,0,0)"><path fill="rgb(3,99,107)" fill-opacity="1" d=" M10.833426475524902,23.238759994506836 C31.08824920654297,10.256035804748535 44.66787338256836,-20.35186195373535 35.69842529296875,-35.78871536254883 C26.109107971191406,-52.355648040771484 -4.644204139709473,-53.90204620361328 -26.5964298248291,-43.09845733642578 C-46.96828842163086,-33.091426849365234 -55.50251770019531,-11.329272270202637 -43.537879943847656,10.623147964477539 C-32.79513931274414,30.27012825012207 -8.411311149597168,35.66941833496094 10.833426475524902,23.238759994506836z M-19.84531593322754,20.315317153930664 C-29.29876708984375,21.603811264038086 -37.37453842163086,20.171133041381836 -43.52449035644531,9.216089248657227 C-54.78842544555664,-11.913124084472656 -48.64085388183594,-29.885940551757812 -29.860414505004883,-38.18595504760742 C-14.501433372497559,-44.96868133544922 -12.333773612976074,-34.83092498779297 -9.244739532470703,-17.256229400634766 C-6.572227954864502,-2.3378243446350098 -6.891321659088135,21.46365737915039 -19.84531593322754,20.315317153930664z"/></g><g opacity="1" transform="matrix(1,0,0,1,0,0)"><g opacity="0.2" transform="matrix(1,0,0,1,0,0)"><path stroke-linecap="round" stroke-linejoin="round" fill-opacity="0" stroke="rgb(255,255,255)" stroke-opacity="1" stroke-width="16" d=" M-17.286985397338867,-14.613037109375 C-17.286985397338867,-14.613037109375 -26.401906967163086,-12.108458518981934 -33.52722930908203,-9.267827987670898"/></g><g opacity="1" transform="matrix(1,0,0,1,0,0)"><path stroke-linecap="round" stroke-linejoin="round" fill-opacity="0" stroke="rgb(255,255,255)" stroke-opacity="1" stroke-width="6" d=" M-28.09169578552246,-11.602326393127441 C-26.67336654663086,-12.11607837677002 -25.25503921508789,-12.525148391723633 -25.25503921508789,-12.525148391723633"/></g><g opacity="1" transform="matrix(1,0,0,1,0,0)"><path stroke-linecap="round" stroke-linejoin="round" fill-opacity="0" stroke="rgb(255,255,255)" stroke-opacity="1" stroke-width="6" d=" M-30.984163284301758,-10.576823234558105 C-30.82528305053711,-10.637893676757812 -30.995746612548828,-10.573677062988281 -30.82528305053711,-10.636929512023926"/></g></g></g></g></g></g><g transform="matrix(-0.518311083316803,0.7402249574661255,-0.7402249574661255,-0.518311083316803,248.0345458984375,48.374908447265625)" opacity="1" style="display: block;"><g opacity="1" transform="matrix(1,0,0,1,0,0)"><g opacity="1" transform="matrix(1,0,0,1,0,0)"><path fill="rgb(151,225,232)" fill-opacity="1" d=" M163.23487854003906,-120.6312026977539 C170.69485473632812,-128.37152099609375 187.1121063232422,-148.48922729492188 193.62933349609375,-159.47998046875 C200.14654541015625,-170.47073364257812 170.66429138183594,-141.78616333007812 163.6515655517578,-133.85906982421875 C156.63888549804688,-125.93196105957031 156.43789672851562,-114.89749145507812 163.23487854003906,-120.6312026977539z"/></g><g opacity="1" transform="matrix(1,0,0,1,0,0)"><path fill="rgb(71,232,244)" fill-opacity="1" d=" M157.37847900390625,-123.5738525390625 C157.66188049316406,-121.51825714111328 159.76280212402344,-121.71855163574219 164.74371337890625,-126.64082336425781 C171.3609619140625,-133.1731414794922 184.04409790039062,-149.47836303710938 191.9051055908203,-160.47608947753906 C194.2698211669922,-161.84811401367188 195.1536865234375,-161.6125946044922 193.42637634277344,-158.6997528076172 C186.91207885742188,-147.7129364013672 170.6636199951172,-127.44107818603516 163.0357666015625,-119.84221649169922 C158.31454467773438,-115.83780670166016 155.39576721191406,-117.9866714477539 157.37847900390625,-123.5738525390625z"/></g><g opacity="1" transform="matrix(1,0,0,1,0,0)"><path stroke-linecap="round" stroke-linejoin="round" fill-opacity="0" stroke="rgb(6,111,114)" stroke-opacity="1" stroke-width="8" d=" M163.23487854003906,-120.6312026977539 C168.69166564941406,-124.11865997314453 192.033203125,-153.1528778076172 193.4302978515625,-158.7056427001953 C195.7445526123047,-167.90431213378906 170.66429138183594,-141.78616333007812 163.6515655517578,-133.85906982421875 C156.63888549804688,-125.93196105957031 154.798095703125,-116.52525329589844 163.23487854003906,-120.6312026977539z"/></g></g><g opacity="1" transform="matrix(1,0,0,1,0,0)"><g opacity="1" transform="matrix(1,0,0,1,0,0)"><path fill="rgb(12,159,163)" fill-opacity="1" d=" M162.30833435058594,-119.5000991821289 C162.30833435058594,-119.5000991821289 189.62725830078125,-110.27909088134766 202.5565185546875,-93.99574279785156 C216.09078979492188,-76.94961547851562 171.92083740234375,-93.79167938232422 155.5753173828125,-99.281982421875 C155.5753173828125,-99.281982421875 152.15855407714844,-110.57041931152344 162.30833435058594,-119.5000991821289z"/></g><g opacity="1" transform="matrix(1,0,0,1,0,0)"><path fill="rgb(71,232,244)" fill-opacity="1" d=" M206.2764129638672,-86.4815673828125 C206.03211975097656,-86.8107681274414 205.78050231933594,-87.13796997070312 205.51470947265625,-87.47421264648438 C192.59034729003906,-103.7515640258789 165.27142333984375,-112.9725341796875 165.27142333984375,-112.9725341796875 C162.48805236816406,-110.5190658569336 162.73072814941406,-106.27296447753906 164.55392456054688,-101.39238739013672 C159.96353149414062,-109.24483489990234 157.28469848632812,-117.01981353759766 161.47601318359375,-120.71350860595703 C161.47601318359375,-120.71350860595703 188.79588317871094,-111.49346923828125 201.7281951904297,-95.20811462402344 C204.47390747070312,-91.75353240966797 205.89273071289062,-88.85806274414062 206.2764129638672,-86.4815673828125z"/></g><g opacity="0.3" transform="matrix(1,0,0,1,0,0)"><path fill="rgb(3,99,107)" fill-opacity="1" d=" M195.26434326171875,-84.05918884277344 C190.29791259765625,-81.59697723388672 163.88433837890625,-96.49114990234375 155.57830810546875,-99.27994537353516 C155.57830810546875,-99.27994537353516 152.160400390625,-110.56542205810547 162.30740356445312,-119.50113677978516 C162.30740356445312,-119.50113677978516 167.76803588867188,-117.50743865966797 174.9976806640625,-113.89179229736328 C175.23614501953125,-113.29763793945312 174.6733856201172,-95.23921203613281 195.26434326171875,-84.05918884277344z"/></g><g opacity="1" transform="matrix(1,0,0,1,0,0)"><path stroke-linecap="round" stroke-linejoin="round" fill-opacity="0" stroke="rgb(6,111,114)" stroke-opacity="1" stroke-width="8" d=" M162.30833435058594,-119.5000991821289 C162.30833435058594,-119.5000991821289 189.62725830078125,-110.27909088134766 202.5565185546875,-93.99574279785156 C216.09078979492188,-76.94961547851562 171.92083740234375,-93.79167938232422 155.5753173828125,-99.281982421875 C155.5753173828125,-99.281982421875 152.15855407714844,-110.57041931152344 162.30833435058594,-119.5000991821289z"/></g></g></g><g transform="matrix(-0.518311083316803,0.7402249574661255,-0.7402249574661255,-0.518311083316803,248.03456115722656,48.374908447265625)" opacity="1" style="display: block;"><g opacity="1" transform="matrix(1,0,0,1,0,0)"><g opacity="1" transform="matrix(1,0,0,1,0,0)"><path stroke-linecap="round" stroke-linejoin="round" fill-opacity="0" stroke="rgb(3,86,86)" stroke-opacity="1" stroke-width="8" d=" M150.28070068359375,-115.84512329101562"/></g><g opacity="1" transform="matrix(1,0,0,1,0,0)"><path fill="rgb(25,172,175)" fill-opacity="1" d=" M157.984619140625,-120.65836334228516 C157.984619140625,-120.65836334228516 136.47525024414062,-157.39549255371094 124.75362396240234,-162.66232299804688 C113.0320053100586,-167.92913818359375 128.2488250732422,-132.087890625 133.25189208984375,-120.16732025146484 C133.25189208984375,-120.16732025146484 150.2523956298828,-115.88284301757812 150.2523956298828,-115.88284301757812 C150.2523956298828,-115.88284301757812 157.984619140625,-120.65836334228516 157.984619140625,-120.65836334228516z"/></g><g opacity="1" transform="matrix(1,0,0,1,0,0)"><path fill="rgb(71,232,244)" fill-opacity="1" d=" M135.5652313232422,-120.7955551147461 C135.5652313232422,-120.7955551147461 133.0355987548828,-120.50023651123047 133.0355987548828,-120.50023651123047 C128.2964630126953,-132.48751831054688 112.49153137207031,-168.54356384277344 124.21211242675781,-163.2767333984375 C127.09939575195312,-161.97824096679688 130.2258758544922,-158.61822509765625 133.3076629638672,-154.280029296875 C132.37139892578125,-155.050048828125 131.50851440429688,-155.43710327148438 130.55621337890625,-156.05856323242188 C119.66254425048828,-163.16152954101562 136.85987854003906,-137.49757385253906 135.5652313232422,-120.7955551147461z"/></g><g opacity="1" transform="matrix(1,0,0,1,0,0)"><path stroke-linecap="round" stroke-linejoin="round" fill-opacity="0" stroke="rgb(6,111,114)" stroke-opacity="1" stroke-width="8" d=" M157.984619140625,-120.65836334228516 C157.984619140625,-120.65836334228516 136.47525024414062,-157.39549255371094 124.75362396240234,-162.66232299804688 C113.0320053100586,-167.92913818359375 127.78866577148438,-132.1873321533203 133.25189208984375,-120.16732025146484 C134.33961486816406,-117.7672348022461 150.2523956298828,-115.88284301757812 150.2523956298828,-115.88284301757812 C150.2523956298828,-115.88284301757812 157.984619140625,-120.65836334228516 157.984619140625,-120.65836334228516z"/></g><g opacity="1" transform="matrix(1,0,0,1,0,0)"><path stroke-linecap="round" stroke-linejoin="round" fill-opacity="0" stroke="rgb(3,86,86)" stroke-opacity="1" stroke-width="8" d=" M135.3356170654297,-119.11264038085938 C139.67127990722656,-118.8603286743164 150.2523956298828,-115.88284301757812 150.2523956298828,-115.88284301757812 C150.2523956298828,-115.88284301757812 157.984619140625,-120.65836334228516 157.984619140625,-120.65836334228516"/></g></g><g opacity="1" transform="matrix(1,0,0,1,0,0)"><g opacity="1" transform="matrix(1,0,0,1,0,0)"><path fill="rgb(7,132,135)" fill-opacity="1" d=" M157.86715698242188,-119.84587860107422 C157.86715698242188,-119.84587860107422 165.1857147216797,-116.6011734008789 159.43943786621094,-106.82435607910156 C153.69314575195312,-97.04753875732422 137.785888671875,-84.09917449951172 122.58917999267578,-80.92527770996094 C122.58917999267578,-80.92527770996094 146.61122131347656,-109.3483657836914 146.61122131347656,-109.3483657836914 C146.61122131347656,-109.3483657836914 157.86715698242188,-119.84587860107422 157.86715698242188,-119.84587860107422z"/></g><g opacity="1" transform="matrix(1,0,0,1,0,0)"><path fill="rgb(71,232,244)" fill-opacity="1" d=" M122.45304107666016,-80.09920501708984 C122.45304107666016,-80.09920501708984 130.03579711914062,-89.01151275634766 130.03579711914062,-89.01151275634766 C143.84286499023438,-95.85833740234375 156.0403594970703,-106.234619140625 160.7934112548828,-114.43855285644531 C160.91738891601562,-114.64791107177734 161.02554321289062,-114.85758972167969 161.12939453125,-115.05958557128906 C161.80128479003906,-112.9985122680664 161.6493377685547,-110.01303100585938 159.28628540039062,-105.99178314208984 C153.54103088378906,-96.2139663696289 137.5959930419922,-83.265380859375 122.45304107666016,-80.09920501708984z"/></g><g opacity="1" transform="matrix(1,0,0,1,0,0)"><path stroke-linecap="round" stroke-linejoin="round" fill-opacity="0" stroke="rgb(6,111,114)" stroke-opacity="1" stroke-width="8" d=" M157.86715698242188,-119.84587860107422 C157.86715698242188,-119.84587860107422 164.48812866210938,-118.34229278564453 160.19900512695312,-108.19590759277344 C155.03915405273438,-95.9884033203125 123.91175842285156,-77.71038055419922 122.58917999267578,-80.92527770996094 C124.4029769897461,-88.12638854980469 146.8011016845703,-109.45470428466797 146.8011016845703,-109.45470428466797 C146.8011016845703,-109.45470428466797 157.86715698242188,-119.84587860107422 157.86715698242188,-119.84587860107422z"/></g><g opacity="1" transform="matrix(1,0,0,1,0,0)"><path stroke-linecap="round" stroke-linejoin="round" fill-opacity="0" stroke="rgb(3,86,86)" stroke-opacity="1" stroke-width="8" d=" M139.89920043945312,-105.19528198242188 C142.8922882080078,-109.54429626464844 149.50396728515625,-113.65706634521484 149.50396728515625,-113.65706634521484 C149.50396728515625,-113.65706634521484 157.86715698242188,-119.84587860107422 157.86715698242188,-119.84587860107422"/></g></g></g></g></svg>