<svg xmlns="http://www.w3.org/2000/svg" xmlns:xlink="http://www.w3.org/1999/xlink" viewBox="0 0 512 512" width="512" height="512" preserveAspectRatio="xMidYMid meet" style="width: 100%; height: 100%; transform: translate3d(0px, 0px, 0px); content-visibility: visible;"><defs><clipPath id="__lottie_element_2"><rect width="512" height="512" x="0" y="0"/></clipPath><linearGradient id="__lottie_element_11" spreadMethod="pad" gradientUnits="userSpaceOnUse" x1="-135" y1="-66" x2="-0.4059999883174896" y2="137.18600463867188"><stop offset="9%" stop-color="rgb(197,7,7)"/><stop offset="49%" stop-color="rgb(147,4,4)"/><stop offset="100%" stop-color="rgb(97,1,0)"/></linearGradient><linearGradient id="__lottie_element_12" spreadMethod="pad" gradientUnits="userSpaceOnUse" x1="20.45589828491211" y1="17.946340560913086" x2="196.20606994628906" y2="64.03591918945312"><stop offset="0%" stop-color="rgb(255,19,21)"/><stop offset="44%" stop-color="rgb(215,24,26)"/><stop offset="100%" stop-color="rgb(176,29,30)"/></linearGradient><linearGradient id="__lottie_element_13" spreadMethod="pad" gradientUnits="userSpaceOnUse" x1="20.45589828491211" y1="17.946340560913086" x2="196.20606994628906" y2="64.03591918945312"><stop offset="0%" stop-color="rgb(255,19,21)"/><stop offset="44%" stop-color="rgb(215,24,26)"/><stop offset="100%" stop-color="rgb(176,29,30)"/></linearGradient><linearGradient id="__lottie_element_14" spreadMethod="pad" gradientUnits="userSpaceOnUse" x1="20.45589828491211" y1="17.946340560913086" x2="196.20606994628906" y2="64.03591918945312"><stop offset="0%" stop-color="rgb(255,19,21)"/><stop offset="44%" stop-color="rgb(215,24,26)"/><stop offset="100%" stop-color="rgb(176,29,30)"/></linearGradient></defs><g clip-path="url(#__lottie_element_2)"><g transform="matrix(-0.8891050219535828,0.45770323276519775,-0.45770323276519775,-0.8891050219535828,215.3350372314453,122.53205871582031)" opacity="1" style="display: none;"><g opacity="1" transform="matrix(1,0,0,1,0,0)"><path stroke-linecap="round" stroke-linejoin="round" fill-opacity="0" stroke="rgb(213,213,213)" stroke-opacity="1" stroke-width="0" d="M0 0"/></g></g><g transform="matrix(-0.9999372363090515,0.011204779148101807,-0.011204779148101807,-0.9999372363090515,241.46212768554688,110.42963409423828)" opacity="1" style="display: none;"><g opacity="1" transform="matrix(1,0,0,1,0,0)"><path stroke-linecap="round" stroke-linejoin="round" fill-opacity="0" stroke="rgb(213,213,213)" stroke-opacity="1" stroke-width="0" d="M0 0"/></g></g><g transform="matrix(-0.6092736124992371,-0.7929600477218628,0.7929600477218628,-0.6092736124992371,295.5130615234375,124.90929412841797)" opacity="1" style="display: none;"><g opacity="1" transform="matrix(1,0,0,1,0,0)"><path stroke-linecap="round" stroke-linejoin="round" fill-opacity="0" stroke="rgb(213,213,213)" stroke-opacity="1" stroke-width="0" d="M0 0"/></g></g><g transform="matrix(-0.8080721497535706,0.5890835523605347,-0.5890835523605347,-0.8080721497535706,208.22103881835938,129.06895446777344)" opacity="1" style="display: none;"><g opacity="1" transform="matrix(1,0,0,1,0,0)"><path stroke-linecap="round" stroke-linejoin="round" fill-opacity="0" stroke="rgb(213,213,213)" stroke-opacity="1" stroke-width="0" d="M0 0"/></g></g><g transform="matrix(-0.7945948243141174,-0.6071401238441467,0.6071401238441467,-0.7945948243141174,281.8970642089844,115.72197723388672)" opacity="1" style="display: none;"><g opacity="1" transform="matrix(1,0,0,1,0,0)"><path stroke-linecap="round" stroke-linejoin="round" fill-opacity="0" stroke="rgb(213,213,213)" stroke-opacity="1" stroke-width="0" d="M0 0"/></g></g><g transform="matrix(0.6158815026283264,-0.7878388166427612,0.7878388166427612,0.6158815026283264,309.7164001464844,200.26434326171875)" opacity="1" style="display: none;"><g opacity="1" transform="matrix(1,0,0,1,0,0)"><path stroke-linecap="round" stroke-linejoin="round" fill-opacity="0" stroke="rgb(213,213,213)" stroke-opacity="1" stroke-width="0" d="M0 0"/></g></g><g transform="matrix(0.4292031526565552,0.9032079577445984,-0.9032079577445984,0.4292031526565552,203.57760620117188,208.83055114746094)" opacity="1" style="display: none;"><g opacity="1" transform="matrix(1,0,0,1,0,0)"><path stroke-linecap="round" stroke-linejoin="round" fill-opacity="0" stroke="rgb(213,213,213)" stroke-opacity="1" stroke-width="0" d="M0 0"/></g></g><g transform="matrix(0.46219751238822937,-0.8867769837379456,0.8867769837379456,0.46219751238822937,313.9757080078125,239.64697265625)" opacity="1" style="display: none;"><g opacity="1" transform="matrix(1,0,0,1,0,0)"><path stroke-linecap="round" stroke-linejoin="round" fill-opacity="0" stroke="rgb(213,213,213)" stroke-opacity="1" stroke-width="0" d="M0 0"/></g></g><g transform="matrix(-0.2378215193748474,-0.9713088870048523,0.9713088870048523,-0.2378215193748474,310.87554931640625,145.6241912841797)" opacity="1" style="display: none;"><g opacity="1" transform="matrix(1,0,0,1,0,0)"><path stroke-linecap="round" stroke-linejoin="round" fill-opacity="0" stroke="rgb(213,213,213)" stroke-opacity="1" stroke-width="0" d="M0 0"/></g></g><g transform="matrix(0.9999005794525146,0.014101793058216572,-0.014101793058216572,0.9999005794525146,264.982177734375,233.3679962158203)" opacity="1" style="display: none;"><g opacity="1" transform="matrix(1,0,0,1,0,0)"><path stroke-linecap="round" stroke-linejoin="round" fill-opacity="0" stroke="rgb(213,213,213)" stroke-opacity="1" stroke-width="0" d="M0 0"/></g></g><g transform="matrix(0.9093813896179199,-0.41596338152885437,0.41596338152885437,0.9093813896179199,290.34002685546875,222.70867919921875)" opacity="1" style="display: none;"><g opacity="1" transform="matrix(1,0,0,1,0,0)"><path stroke-linecap="round" stroke-linejoin="round" fill-opacity="0" stroke="rgb(213,213,213)" stroke-opacity="1" stroke-width="0" d="M0 0"/></g></g><g transform="matrix(0.33293473720550537,-0.9429498910903931,0.9429498910903931,0.33293473720550537,315.8961486816406,181.03721618652344)" opacity="1" style="display: none;"><g opacity="1" transform="matrix(1,0,0,1,0,0)"><path stroke-linecap="round" stroke-linejoin="round" fill-opacity="0" stroke="rgb(213,213,213)" stroke-opacity="1" stroke-width="0" d="M0 0"/></g></g><g transform="matrix(-0.10140357166528702,0.9948453903198242,-0.9948453903198242,-0.10140357166528702,191.6581573486328,177.3069610595703)" opacity="1" style="display: none;"><g opacity="1" transform="matrix(1,0,0,1,0,0)"><path stroke-linecap="round" stroke-linejoin="round" fill-opacity="0" stroke="rgb(213,213,213)" stroke-opacity="1" stroke-width="0" d="M0 0"/></g></g><g transform="matrix(0.4384182095527649,0.8987711071968079,-0.8987711071968079,0.4384182095527649,203.95947265625,209.34429931640625)" opacity="1" style="display: none;"><g opacity="1" transform="matrix(1,0,0,1,0,0)"><path stroke-linecap="round" stroke-linejoin="round" fill-opacity="0" stroke="rgb(213,213,213)" stroke-opacity="1" stroke-width="0" d="M0 0"/></g></g><g transform="matrix(-0.5951033234596252,0.8036491870880127,-0.8036491870880127,-0.5951033234596252,197.5581512451172,144.69998168945312)" opacity="1" style="display: none;"><g opacity="1" transform="matrix(1,0,0,1,0,0)"><path stroke-linecap="round" stroke-linejoin="round" fill-opacity="0" stroke="rgb(213,213,213)" stroke-opacity="1" stroke-width="0" d="M0 0"/></g></g><g transform="matrix(-0.9999721050262451,0.007469939533621073,-0.007469939533621073,-0.9999721050262451,241.69125366210938,130.38323974609375)" opacity="1" style="display: none;"><g opacity="1" transform="matrix(1,0,0,1,0,0)"><path stroke-linecap="round" stroke-linejoin="round" fill-opacity="0" stroke="rgb(213,213,213)" stroke-opacity="1" stroke-width="0" d="M0 0"/></g></g><g transform="matrix(-0.950342059135437,-0.31120723485946655,0.31120723485946655,-0.950342059135437,261.86431884765625,129.65701293945312)" opacity="1" style="display: none;"><g opacity="1" transform="matrix(1,0,0,1,0,0)"><path stroke-linecap="round" stroke-linejoin="round" fill-opacity="0" stroke="rgb(213,213,213)" stroke-opacity="1" stroke-width="0" d="M0 0"/></g></g><g transform="matrix(-0.8831605315208435,0.4690708518028259,-0.4690708518028259,-0.8831605315208435,214.7068634033203,143.03208923339844)" opacity="1" style="display: none;"><g opacity="1" transform="matrix(1,0,0,1,0,0)"><path stroke-linecap="round" stroke-linejoin="round" fill-opacity="0" stroke="rgb(213,213,213)" stroke-opacity="1" stroke-width="0" d="M0 0"/></g></g><g transform="matrix(0.9168720841407776,-0.39918118715286255,-0.39918118715286255,-0.9168720841407776,244.33245849609375,110.67149353027344)" opacity="1" style="display: none;"><g opacity="1" transform="matrix(1,0,0,1,0,0)"><path stroke-linecap="round" stroke-linejoin="round" fill-opacity="0" stroke="rgb(213,213,213)" stroke-opacity="1" stroke-width="0" d="M0 0"/></g></g><g transform="matrix(0.8891050219535828,0.45770323276519775,0.45770323276519775,-0.8891050219535828,296.66497802734375,122.53205871582031)" opacity="1" style="display: none;"><g opacity="1" transform="matrix(1,0,0,1,0,0)"><path stroke-linecap="round" stroke-linejoin="round" fill-opacity="0" stroke="rgb(213,213,213)" stroke-opacity="1" stroke-width="0" d="M0 0"/></g></g><g transform="matrix(0.9999372363090515,0.011204779148101807,0.011204779148101807,-0.9999372363090515,270.5378723144531,110.42962646484375)" opacity="1" style="display: none;"><g opacity="1" transform="matrix(1,0,0,1,0,0)"><path stroke-linecap="round" stroke-linejoin="round" fill-opacity="0" stroke="rgb(213,213,213)" stroke-opacity="1" stroke-width="0" d="M0 0"/></g></g><g transform="matrix(0.6092736124992371,-0.7929600477218628,-0.7929600477218628,-0.6092736124992371,216.4869384765625,124.9093017578125)" opacity="1" style="display: none;"><g opacity="1" transform="matrix(1,0,0,1,0,0)"><path stroke-linecap="round" stroke-linejoin="round" fill-opacity="0" stroke="rgb(213,213,213)" stroke-opacity="1" stroke-width="0" d="M0 0"/></g></g><g transform="matrix(0.8080721497535706,0.5890835523605347,0.5890835523605347,-0.8080721497535706,343.7789611816406,129.06895446777344)" opacity="1" style="display: none;"><g opacity="1" transform="matrix(1,0,0,1,0,0)"><path stroke-linecap="round" stroke-linejoin="round" fill-opacity="0" stroke="rgb(213,213,213)" stroke-opacity="1" stroke-width="0" d="M0 0"/></g></g><g transform="matrix(0.7945948243141174,-0.6071401238441467,-0.6071401238441467,-0.7945948243141174,230.10293579101562,115.72198486328125)" opacity="1" style="display: none;"><g opacity="1" transform="matrix(1,0,0,1,0,0)"><path stroke-linecap="round" stroke-linejoin="round" fill-opacity="0" stroke="rgb(213,213,213)" stroke-opacity="1" stroke-width="0" d="M0 0"/></g></g><g transform="matrix(-0.6158815026283264,-0.7878388166427612,-0.7878388166427612,0.6158815026283264,202.28359985351562,200.26434326171875)" opacity="1" style="display: none;"><g opacity="1" transform="matrix(1,0,0,1,0,0)"><path stroke-linecap="round" stroke-linejoin="round" fill-opacity="0" stroke="rgb(213,213,213)" stroke-opacity="1" stroke-width="0" d="M0 0"/></g></g><g transform="matrix(-0.4292031526565552,0.9032079577445984,0.9032079577445984,0.4292031526565552,308.4223937988281,208.83055114746094)" opacity="1" style="display: none;"><g opacity="1" transform="matrix(1,0,0,1,0,0)"><path stroke-linecap="round" stroke-linejoin="round" fill-opacity="0" stroke="rgb(213,213,213)" stroke-opacity="1" stroke-width="0" d="M0 0"/></g></g><g transform="matrix(0.5033366680145264,0.8640903830528259,0.8640903830528259,-0.5033366680145264,317.0689392089844,151.055908203125)" opacity="1" style="display: none;"><g opacity="1" transform="matrix(1,0,0,1,0,0)"><path stroke-linecap="round" stroke-linejoin="round" fill-opacity="0" stroke="rgb(213,213,213)" stroke-opacity="1" stroke-width="0" d="M0 0"/></g></g><g transform="matrix(0.2378215193748474,-0.9713088870048523,-0.9713088870048523,-0.2378215193748474,201.12445068359375,145.6241912841797)" opacity="1" style="display: none;"><g opacity="1" transform="matrix(1,0,0,1,0,0)"><path stroke-linecap="round" stroke-linejoin="round" fill-opacity="0" stroke="rgb(213,213,213)" stroke-opacity="1" stroke-width="0" d="M0 0"/></g></g><g transform="matrix(-0.9999005794525146,0.014101793058216572,0.014101793058216572,0.9999005794525146,247.01783752441406,233.3679962158203)" opacity="1" style="display: none;"><g opacity="1" transform="matrix(1,0,0,1,0,0)"><path stroke-linecap="round" stroke-linejoin="round" fill-opacity="0" stroke="rgb(213,213,213)" stroke-opacity="1" stroke-width="0" d="M0 0"/></g></g><g transform="matrix(-0.9093813896179199,-0.41596338152885437,-0.41596338152885437,0.9093813896179199,221.65997314453125,222.70867919921875)" opacity="1" style="display: none;"><g opacity="1" transform="matrix(1,0,0,1,0,0)"><path stroke-linecap="round" stroke-linejoin="round" fill-opacity="0" stroke="rgb(213,213,213)" stroke-opacity="1" stroke-width="0" d="M0 0"/></g></g><g transform="matrix(-0.33293473720550537,-0.9429498910903931,-0.9429498910903931,0.33293473720550537,196.10385131835938,181.03721618652344)" opacity="1" style="display: none;"><g opacity="1" transform="matrix(1,0,0,1,0,0)"><path stroke-linecap="round" stroke-linejoin="round" fill-opacity="0" stroke="rgb(213,213,213)" stroke-opacity="1" stroke-width="0" d="M0 0"/></g></g><g transform="matrix(0.10140357166528702,0.9948453903198242,0.9948453903198242,-0.10140357166528702,320.34185791015625,197.3069610595703)" opacity="1" style="display: none;"><g opacity="1" transform="matrix(1,0,0,1,0,0)"><path stroke-linecap="round" stroke-linejoin="round" fill-opacity="0" stroke="rgb(213,213,213)" stroke-opacity="1" stroke-width="0" d="M0 0"/></g></g><g transform="matrix(0.4035932123661041,-0.9149385094642639,-0.9149385094642639,-0.4035932123661041,206.55319213867188,136.10435485839844)" opacity="1" style="display: none;"><g opacity="1" transform="matrix(1,0,0,1,0,0)"><path stroke-linecap="round" stroke-linejoin="round" fill-opacity="0" stroke="rgb(213,213,213)" stroke-opacity="1" stroke-width="0" d="M0 0"/></g></g><g transform="matrix(0.5951033234596252,0.8036491870880127,0.8036491870880127,-0.5951033234596252,314.44183349609375,144.69998168945312)" opacity="1" style="display: none;"><g opacity="1" transform="matrix(1,0,0,1,0,0)"><path stroke-linecap="round" stroke-linejoin="round" fill-opacity="0" stroke="rgb(213,213,213)" stroke-opacity="1" stroke-width="0.020549039632993704" d=" M-15.338000297546387,-243.38699340820312 C-15.343000411987305,-243.5749969482422 -15.345999717712402,-243.67100524902344 -15.345999717712402,-243.67100524902344"/></g></g><g transform="matrix(0.9845019578933716,0,0,0.9574849605560303,295.5291748046875,245.8108673095703)" opacity="1" style="display: block;"><g opacity="1" transform="matrix(1,0,0,1,0,0)"><path fill="url(#__lottie_element_11)" fill-opacity="1" d=" M53.278072357177734,-81.22493743896484 C-10.936582565307617,-145.73497009277344 -101.67887115478516,-140.7421875 -151.20462036132812,-99.1288070678711 C-151.20462036132812,-99.1288070678711 -152.82867431640625,-99.02555084228516 -152.82867431640625,-99.02555084228516 C-152.82867431640625,-99.02555084228516 -159.97018432617188,-92.17192840576172 -159.97018432617188,-92.17192840576172 C-216.51284790039062,-27.03301239013672 -204.520263671875,63.31386947631836 -149.451416015625,120.50558471679688 C-91.51292419433594,180.7782440185547 8.395197868347168,187.3666534423828 62.57836151123047,133.18350219726562 C62.57836151123047,133.18350219726562 70.96122741699219,124.81847381591797 70.96122741699219,124.81847381591797 C70.96122741699219,124.81847381591797 70.54283142089844,123.48230743408203 70.54283142089844,123.48230743408203 C111.08512878417969,75.18812561035156 118.36559295654297,-15.835713386535645 53.278072357177734,-81.22493743896484z"/></g><g opacity="1" transform="matrix(1,0,0,1,0,0)"><path stroke-linecap="butt" stroke-linejoin="round" fill-opacity="0" stroke="rgb(112,0,0)" stroke-opacity="1" stroke-width="8" d=" M53.278072357177734,-81.22493743896484 C-11.960301399230957,-146.46331787109375 -102.1106948852539,-139.4467010498047 -151.20462036132812,-99.1288070678711 C-151.20462036132812,-99.1288070678711 -152.82867431640625,-99.02555084228516 -152.82867431640625,-99.02555084228516 C-152.82867431640625,-99.02555084228516 -159.97018432617188,-92.17192840576172 -159.97018432617188,-92.17192840576172 C-216.51284790039062,-27.03301239013672 -202.6680145263672,67.28898620605469 -149.451416015625,120.50558471679688 C-87.61841583251953,182.33859252929688 7.5315423011779785,188.23031616210938 62.57836151123047,133.18350219726562 C62.57836151123047,133.18350219726562 70.96122741699219,124.81847381591797 70.96122741699219,124.81847381591797 C70.96122741699219,124.81847381591797 70.54283142089844,123.48230743408203 70.54283142089844,123.48230743408203 C108.20628356933594,79.7942886352539 118.51644897460938,-15.985989570617676 53.278072357177734,-81.22493743896484z"/></g><g opacity="1" transform="matrix(1,0,0,1,0,0)"><path stroke-linecap="round" stroke-linejoin="round" fill-opacity="0" stroke="rgb(81,0,0)" stroke-opacity="1" stroke-width="8" d=" M-122.7410659790039,142.3450469970703 C-72.2112808227539,179.5467987060547 10.83979606628418,184.92205810546875 62.57836151123047,133.18350219726562 C62.57836151123047,133.18350219726562 70.96122741699219,124.81847381591797 70.96122741699219,124.81847381591797 C70.96122741699219,124.81847381591797 70.54283142089844,123.48230743408203 70.54283142089844,123.48230743408203"/></g><g opacity="1" transform="matrix(1,0,0,1,0,0)"><g opacity="1" transform="matrix(1,0,0,1,0,0)"><path fill="url(#__lottie_element_12)" fill-opacity="1" d=" M61.13468551635742,-87.90065002441406 C122.4661865234375,-25.571332931518555 126.51644897460938,70.10099792480469 70.1799087524414,125.78980255126953 C13.843363761901855,181.47860717773438 -81.5777816772461,176.126953125 -142.87704467773438,113.7659683227539 C-199.67666625976562,56.04108810424805 -208.2578125,-44.23610305786133 -151.9212646484375,-99.9249038696289 C-95.584716796875,-155.61370849609375 -0.19681967794895172,-150.22996520996094 61.13468551635742,-87.90065002441406z"/><path stroke-linecap="butt" stroke-linejoin="round" fill-opacity="0" stroke="rgb(132,3,4)" stroke-opacity="1" stroke-width="8" d=" M61.13468551635742,-87.90065002441406 C122.4661865234375,-25.571332931518555 126.51644897460938,70.10099792480469 70.1799087524414,125.78980255126953 C13.843363761901855,181.47860717773438 -81.5777816772461,176.126953125 -142.87704467773438,113.7659683227539 C-199.67666625976562,56.04108810424805 -208.2578125,-44.23610305786133 -151.9212646484375,-99.9249038696289 C-95.584716796875,-155.61370849609375 -0.19681967794895172,-150.22996520996094 61.13468551635742,-87.90065002441406z"/></g><g opacity="1" transform="matrix(1,0,0,1,0,0)"><path fill="rgb(254,255,255)" fill-opacity="1" d=" M42.046607971191406,-68.48323059082031 C89.10218048095703,-21.42765235900879 92.42696380615234,50.67275619506836 48.051395416259766,95.04832458496094 C3.064356565475464,140.03536987304688 -68.55067443847656,134.4702606201172 -115.22394561767578,87.03755187988281 C-161.89720153808594,39.60485076904297 -165.12525939941406,-33.35173034667969 -122.10678100585938,-75.58025360107422 C-74.86329650878906,-121.90998840332031 -2.1047847270965576,-112.6346206665039 42.046607971191406,-68.48323059082031z"/></g><g opacity="1" transform="matrix(1,0,0,1,0,0)"><path fill="url(#__lottie_element_13)" fill-opacity="1" d=" M25.329265594482422,-52.05031967163086 C60.310447692871094,-17.069137573242188 65.11135864257812,39.48448181152344 31.017284393310547,73.57855987548828 C-3.8356587886810303,108.43150329589844 -59.605079650878906,104.40730285644531 -95.76371002197266,67.66023254394531 C-131.92233276367188,30.913166046142578 -133.46324157714844,-24.735918045043945 -100.43952178955078,-57.759639739990234 C-67.05479431152344,-91.14437103271484 -11.125885009765625,-88.5054702758789 25.329265594482422,-52.05031967163086z"/></g><g opacity="1" transform="matrix(1,0,0,1,0,0)"><path fill="rgb(251,255,253)" fill-opacity="1" d=" M6.988276958465576,-34.09336853027344 C33.59196853637695,-7.109091758728027 33.04520034790039,31.81476593017578 9.967443466186523,54.773338317871094 C-11.971439361572266,76.60282135009766 -52.26850891113281,75.26394653320312 -77.51338195800781,49.60854721069336 C-102.75825500488281,23.953149795532227 -103.92095184326172,-15.138833045959473 -80.73207092285156,-38.06113052368164 C-57.543190002441406,-60.983428955078125 -18.287689208984375,-59.7182502746582 6.988276958465576,-34.09336853027344z"/></g><g opacity="1" transform="matrix(1,0,0,1,0,0)"><path fill="url(#__lottie_element_14)" fill-opacity="1" d=" M-10.231097221374512,-16.890689849853516 C4.2342939376831055,-2.1898090839385986 5.189323902130127,20.375370025634766 -8.097681045532227,33.509796142578125 C-21.384687423706055,46.644222259521484 -43.88307571411133,45.374820709228516 -58.34846878051758,30.673940658569336 C-72.81385803222656,15.97305965423584 -73.76946258544922,-6.5921196937561035 -60.48188400268555,-19.726545333862305 C-47.19430160522461,-32.8609733581543 -24.696489334106445,-31.591571807861328 -10.231097221374512,-16.890689849853516z"/></g><g opacity="1" transform="matrix(1,0,0,1,0,0)"><path stroke-linecap="round" stroke-linejoin="round" fill-opacity="0" stroke="rgb(247,141,141)" stroke-opacity="1" stroke-width="8" d=" M-169.61700439453125,-62.65299987792969 C-169.2030029296875,-63.479000091552734 -168.7790069580078,-64.30000305175781 -168.3459930419922,-65.11799621582031"/></g><g opacity="1" transform="matrix(1,0,0,1,0,0)"><path stroke-linecap="round" stroke-linejoin="round" fill-opacity="0" stroke="rgb(247,141,141)" stroke-opacity="1" stroke-width="8" d=" M-180.4969940185547,24.77199935913086 C-184.98300170898438,2.115999937057495 -184.08299255371094,-20.926000595092773 -177.7050018310547,-42.23500061035156"/></g></g></g><g transform="matrix(-0.5583868622779846,-0.26153624057769775,0.2689158618450165,-0.5430634617805481,443.0301208496094,57.33857727050781)" opacity="1" style="display: block;"><g opacity="1" transform="matrix(1,0,0,1,0,0)"><g opacity="1" transform="matrix(1,0,0,1,0,0)"><g opacity="1" transform="matrix(1,0,0,1,0,0)"><g opacity="1" transform="matrix(1,0,0,1,0,0)"><path stroke-linecap="round" stroke-linejoin="round" fill-opacity="0" stroke="rgb(255,221,0)" stroke-opacity="1" stroke-width="8" d=" M-15.701545715332031,-4.487746715545654 C-15.701545715332031,-4.487746715545654 -31.06800079345703,5.809000015258789 -31.06800079345703,5.809000015258789"/></g><g opacity="1" transform="matrix(1,0,0,1,1.434000015258789,2.0480000972747803)"><path stroke-linecap="round" stroke-linejoin="round" fill-opacity="0" stroke="rgb(150,98,5)" stroke-opacity="1" stroke-width="5" d=" M-15.701545715332031,-4.487746715545654 C-15.701545715332031,-4.487746715545654 -31.06800079345703,5.809000015258789 -31.06800079345703,5.809000015258789"/></g></g><g opacity="1" transform="matrix(1,0,0,1,0,0)"><g opacity="1" transform="matrix(1,0,0,1,0,0)"><path fill="rgb(220,184,0)" fill-opacity="1" d=" M-12.744538307189941,7.953390598297119 C-12.744538307189941,7.953390598297119 -12.744538307189941,7.953390598297119 -12.744538307189941,7.953390598297119 C-25.863073348999023,15.110946655273438 -37.934326171875,-3.458972930908203 -26.30392074584961,-12.295770645141602 C-26.30392074584961,-12.295770645141602 -26.30392074584961,-12.295770645141602 -26.30392074584961,-12.295770645141602 C-26.356733322143555,-12.5219087600708 -26.136028289794922,-12.922709465026855 -25.83561134338379,-13.047574996948242 C-25.83561134338379,-13.047574996948242 -24.329200744628906,-14.062618255615234 -24.329200744628906,-14.062618255615234 C-24.329200744628906,-14.062618255615234 -10.316200256347656,6.826382160186768 -10.316200256347656,6.826382160186768 C-10.316200256347656,6.826382160186768 -11.869301795959473,7.865649223327637 -11.869301795959473,7.865649223327637 C-12.180317878723145,8.00338363647461 -12.458345413208008,8.046365737915039 -12.744538307189941,7.953390598297119z"/></g><g opacity="1" transform="matrix(1,0,0,1,0,0)"><path fill="rgb(255,243,26)" fill-opacity="1" d=" M-27.074295043945312,1.9328405857086182 C-27.074295043945312,1.9328405857086182 -29.1452579498291,3.3006293773651123 -29.1452579498291,3.3006293773651123 C-32.687843322753906,-1.017529010772705 -31.111051559448242,-9.777368545532227 -26.16036033630371,-12.24407958984375 C-26.09705352783203,-12.640730857849121 -26.01769256591797,-12.900700569152832 -25.745742797851562,-13.096508979797363 C-25.745742797851562,-13.096508979797363 -24.4710693359375,-13.904622077941895 -24.4710693359375,-13.904622077941895 C-29.23408317565918,-10.838763236999512 -30.74460220336914,-2.5200114250183105 -27.074295043945312,1.9328405857086182z"/></g><g opacity="1" transform="matrix(1,0,0,1,0,0)"><path stroke-linecap="round" stroke-linejoin="round" fill-opacity="0" stroke="rgb(170,101,0)" stroke-opacity="1" stroke-width="5" d=" M-12.757538795471191,7.9621477127075195 C-12.757538795471191,7.9621477127075195 -12.757538795471191,7.9621477127075195 -12.757538795471191,7.9621477127075195 C-26.056699752807617,15.113619804382324 -37.938697814941406,-3.5504393577575684 -26.316919326782227,-12.286770820617676 C-26.316919326782227,-12.286770820617676 -26.316919326782227,-12.286770820617676 -26.316919326782227,-12.286770820617676 C-26.31195831298828,-12.566899299621582 -26.233327865600586,-12.874074935913086 -25.8446102142334,-13.041574478149414 C-25.8446102142334,-13.041574478149414 -24.329200744628906,-14.062618255615234 -24.329200744628906,-14.062618255615234 C-24.329200744628906,-14.062618255615234 -10.316200256347656,6.826382160186768 -10.316200256347656,6.826382160186768 C-10.316200256347656,6.826382160186768 -11.878301620483398,7.871649265289307 -11.878301620483398,7.871649265289307 C-12.135299682617188,7.980860233306885 -12.508952140808105,8.048309326171875 -12.757538795471191,7.9621477127075195z"/></g></g><g opacity="1" transform="matrix(1,0,0,1,0,0)"><g opacity="1" transform="matrix(1,0,0,1,0,0)"><path fill="rgb(220,184,0)" fill-opacity="1" d=" M-6.175756454467773,12.925393104553223 C-6.175756454467773,12.925393104553223 -6.175756454467773,12.925393104553223 -6.175756454467773,12.925393104553223 C-25.59175682067871,22.442089080810547 -45.16153335571289,-5.571053981781006 -28.142833709716797,-19.911123275756836 C-28.142833709716797,-19.911123275756836 -28.142833709716797,-19.911123275756836 -28.142833709716797,-19.911123275756836 C-28.181039810180664,-20.365583419799805 -27.977651596069336,-20.788257598876953 -27.58646583557129,-20.96673011779785 C-27.58646583557129,-20.96673011779785 -25.545997619628906,-22.393585205078125 -25.545997619628906,-22.393585205078125 C-25.545997619628906,-22.393585205078125 -2.7559967041015625,11.578414916992188 -2.7559967041015625,11.578414916992188 C-2.7559967041015625,11.578414916992188 -4.843156814575195,12.9575777053833 -4.843156814575195,12.9575777053833 C-5.28884744644165,13.133780479431152 -5.7075700759887695,13.224892616271973 -6.175756454467773,12.925393104553223z"/></g><g opacity="1" transform="matrix(1,0,0,1,0,0)"><g opacity="1" transform="matrix(1,0,0,1,0,0)"><path fill="rgb(180,143,0)" fill-opacity="1" d=" M-11.381081581115723,14.180965423583984 C-11.291754722595215,14.188535690307617 -13.673847198486328,15.427624702453613 -13.673847198486328,15.427624702453613 C-14.395657539367676,15.847368240356445 -15.400272369384766,16.05860137939453 -17.16793441772461,15.436373710632324 C-18.92235565185547,14.817904472351074 -20.908090591430664,14.12877082824707 -22.538116455078125,13.28007698059082 C-22.538116455078125,13.28007698059082 -19.167757034301758,10.876940727233887 -19.167757034301758,10.876940727233887 C-19.167757034301758,10.876940727233887 -15.505236625671387,13.841071128845215 -11.381081581115723,14.180965423583984z"/></g><g opacity="1" transform="matrix(1,0,0,1,0,0)"><path fill="rgb(255,243,26)" fill-opacity="1" d=" M-28.05162239074707,1.5901966094970703 C-27.95926856994629,1.7612794637680054 -31.597003936767578,3.9204111099243164 -31.597003936767578,3.9204111099243164 C-33.837005615234375,0.5094111561775208 -34.846614837646484,-4.303711891174316 -34.780269622802734,-8.39130973815918 C-34.780269622802734,-8.39130973815918 -31.712730407714844,-10.485713005065918 -31.712730407714844,-10.485713005065918 C-31.712730407714844,-10.485713005065918 -30.78894805908203,-3.4673447608947754 -28.05162239074707,1.5901966094970703z"/></g><g opacity="1" transform="matrix(1,0,0,1,0,0)"><path stroke-linecap="round" stroke-linejoin="round" fill-opacity="0" stroke="rgb(150,98,5)" stroke-opacity="1" stroke-width="5" d=" M-19.169755935668945,10.87618350982666 C-19.169755935668945,10.87618350982666 -22.539873123168945,13.278834342956543 -22.539873123168945,13.278834342956543"/></g><g opacity="0.8" transform="matrix(1,0,0,1,0,0)"><path stroke-linecap="round" stroke-linejoin="round" fill-opacity="0" stroke="rgb(150,98,5)" stroke-opacity="1" stroke-width="5" d=" M-27.246685028076172,1.2094476222991943 C-27.246685028076172,1.2094476222991943 -30.511003494262695,3.510411262512207 -30.511003494262695,3.510411262512207"/></g></g><g opacity="1" transform="matrix(1,0,0,1,0,0)"><path stroke-linecap="round" stroke-linejoin="round" fill-opacity="0" stroke="rgb(193,122,8)" stroke-opacity="1" stroke-width="5" d=" M-6.175756454467773,12.925393104553223 C-6.175756454467773,12.925393104553223 -6.175756454467773,12.925393104553223 -6.175756454467773,12.925393104553223 C-26.159509658813477,22.442089080810547 -44.78303146362305,-5.571053981781006 -28.142833709716797,-19.911123275756836 C-28.142833709716797,-19.911123275756836 -28.142833709716797,-19.911123275756836 -28.142833709716797,-19.911123275756836 C-28.157573699951172,-20.365583419799805 -28.00111961364746,-20.74056625366211 -27.58646583557129,-20.96673011779785 C-27.58646583557129,-20.96673011779785 -25.545997619628906,-22.393585205078125 -25.545997619628906,-22.393585205078125 C-25.545997619628906,-22.393585205078125 -2.7559967041015625,11.578414916992188 -2.7559967041015625,11.578414916992188 C-2.7559967041015625,11.578414916992188 -4.843156814575195,12.9575777053833 -4.843156814575195,12.9575777053833 C-5.312314987182617,13.181471824645996 -5.731037139892578,13.177201271057129 -6.175756454467773,12.925393104553223z"/></g><g opacity="1" transform="matrix(1,0,0,1,0,0)"><path stroke-linecap="round" stroke-linejoin="round" fill-opacity="0" stroke="rgb(170,101,0)" stroke-opacity="1" stroke-width="5" d=" M-20.014127731323242,14.395445823669434 C-28.726682662963867,10.80523681640625 -34.90538024902344,1.1032217741012573 -34.789764404296875,-8.296309471130371 C-34.7764778137207,-9.370047569274902 -34.71943283081055,-10.446916580200195 -34.616119384765625,-11.523916244506836"/></g></g><g opacity="1" transform="matrix(1,0,0,1,0,0)"><path stroke-linecap="round" stroke-linejoin="round" fill-opacity="0" stroke="rgb(124,68,0)" stroke-opacity="1" stroke-width="5" d=" M-26.44936752319336,1.6127820014953613 C-26.44936752319336,1.6127820014953613 -32.152671813964844,4.81895637512207 -32.152671813964844,4.81895637512207"/></g></g><g opacity="1" transform="matrix(1,0,0,1,0,0)"><g opacity="1" transform="matrix(1,0,0,1,0,0)"><path fill="rgb(65,225,229)" fill-opacity="1" d=" M12.680662155151367,21.98476219177246 C32.963680267333984,8.848608016967773 47.265411376953125,-22.150936126708984 38.276832580566406,-37.587989807128906 C28.69528579711914,-54.10867691040039 -2.779191732406616,-55.088233947753906 -24.835105895996094,-44.251155853271484 C-45.346553802490234,-34.192474365234375 -53.8742790222168,-12.395257949829102 -41.823158264160156,9.589509963989258 C-30.99172592163086,29.28397560119629 -6.61513090133667,34.58186721801758 12.680662155151367,21.98476219177246z"/></g><g opacity="1" transform="matrix(1,0,0,1,0,0)"><g opacity="1" transform="matrix(1,0,0,1,0,0)"><g opacity="1" transform="matrix(1,0,0,1,106.5,-87.25)"><path fill="rgb(110,255,255)" fill-opacity="1" d=" M-120.24815368652344,43.321144104003906 C-106.69963073730469,35.8558464050293 -88.20994567871094,41.04774475097656 -79.56273651123047,56.1023063659668 C-70.91551971435547,71.15686798095703 -74.31884002685547,90.69794464111328 -87.70793914794922,98.5933837890625 C-101.09703826904297,106.48883056640625 -118.30284881591797,100.62294006347656 -128.04798889160156,84.69404602050781 C-136.98097229003906,69.83901977539062 -133.2622528076172,50.585906982421875 -120.24815368652344,43.321144104003906z"/></g><g opacity="1" transform="matrix(1,0,0,1,106.5,-87.25)"><path fill="rgb(65,225,229)" fill-opacity="1" d=" M-115.72137451171875,44.461326599121094 C-103.98776245117188,37.54662322998047 -79.98880004882812,38.70436477661133 -72.47967529296875,51.7000617980957 C-64.66171264648438,65.15798950195312 -74.70905303955078,87.51197814941406 -86.44266510009766,94.42668151855469 C-98.17627716064453,101.34138488769531 -114.35018920898438,97.3654556274414 -123.28312683105469,82.34736633300781 C-132.1629180908203,67.40748596191406 -127.45498657226562,51.37602996826172 -115.72137451171875,44.461326599121094z"/></g></g><g opacity="1" transform="matrix(1,0,0,1,0,0)"><g opacity="1" transform="matrix(1,0,0,1,106.5,-87.25)"><path fill="rgb(110,255,255)" fill-opacity="1" d=" M-112.90599822998047,44.58972930908203 C-101.60687255859375,37.922725677490234 -86.48394775390625,42.88210678100586 -79.12963104248047,55.666046142578125 C-71.77531433105469,68.44998931884766 -74.6283950805664,84.64876556396484 -85.92752075195312,91.31576538085938 C-97.22664642333984,97.98277282714844 -112.40851593017578,92.59375762939453 -119.76283264160156,79.80982208251953 C-127.11714935302734,67.02587890625 -124.20511627197266,51.256736755371094 -112.90599822998047,44.58972930908203z"/></g><g opacity="1" transform="matrix(1,0,0,1,106.5,-87.25)"><path fill="rgb(65,225,229)" fill-opacity="1" d=" M-109.49706268310547,45.82572555541992 C-99.59654235839844,39.987525939941406 -79.4806137084961,40.84947967529297 -73.10627746582031,51.86172866821289 C-66.45820617675781,63.2830696105957 -75.72420501708984,81.48110961914062 -85.62472534179688,87.3193130493164 C-95.52525329589844,93.15751647949219 -108.89617919921875,88.6017074584961 -115.48809814453125,77.14326477050781 C-122.08001708984375,65.68482971191406 -119.3975830078125,51.6639289855957 -109.49706268310547,45.82572555541992z"/></g></g></g><g opacity="1" transform="matrix(1,0,0,1,0,0)"><path stroke-linecap="butt" stroke-linejoin="round" fill-opacity="0" stroke="rgb(6,111,114)" stroke-opacity="1" stroke-width="8" d=" M12.680662155151367,21.98476219177246 C32.963680267333984,8.848608016967773 47.265411376953125,-22.150936126708984 38.276832580566406,-37.587989807128906 C28.69528579711914,-54.10867691040039 -2.779191732406616,-55.088233947753906 -24.835105895996094,-44.251155853271484 C-45.346553802490234,-34.192474365234375 -54.00145721435547,-12.330155372619629 -41.823158264160156,9.589509963989258 C-30.99172592163086,29.006912231445312 -6.61513090133667,34.58186721801758 12.680662155151367,21.98476219177246z"/></g><g opacity="1" transform="matrix(1,0,0,1,0,0)"><path stroke-linecap="round" stroke-linejoin="round" fill-opacity="0" stroke="rgb(3,86,86)" stroke-opacity="1" stroke-width="8" d=" M-42.638999938964844,8.060999870300293 C-42.37799835205078,8.569999694824219 -42.10599899291992,9.079999923706055 -41.823001861572266,9.59000015258789 C-39.94499969482422,12.956000328063965 -37.6609992980957,15.906000137329102 -35.066001892089844,18.417999267578125"/></g><g opacity="1" transform="matrix(1,0,0,1,0,0)"><g opacity="0.4" transform="matrix(1,0,0,1,0,0)"><path fill="rgb(3,99,107)" fill-opacity="1" d=" M12.680662155151367,21.98476219177246 C32.963680267333984,8.848608016967773 47.265411376953125,-22.150936126708984 38.276832580566406,-37.587989807128906 C28.69528579711914,-54.10867691040039 -2.779191732406616,-55.088233947753906 -24.835105895996094,-44.251155853271484 C-45.346553802490234,-34.192474365234375 -53.8742790222168,-12.395257949829102 -41.823158264160156,9.589509963989258 C-30.99172592163086,29.28397560119629 -6.61513090133667,34.58186721801758 12.680662155151367,21.98476219177246z M-9.610193252563477,16.275484085083008 C-20.367788314819336,24.715295791625977 -34.73713684082031,22.890146255493164 -41.8389892578125,8.026738166809082 C-51.71628952026367,-13.64434814453125 -46.907535552978516,-30.86665916442871 -28.088550567626953,-39.18106460571289 C-12.618484497070312,-46.010372161865234 -12.997350692749023,-34.18986129760742 -5.149449825286865,-17.900474548339844 C-0.700846791267395,-9.328034400939941 -2.6237378120422363,10.581342697143555 -9.610193252563477,16.275484085083008z"/></g><g opacity="1" transform="matrix(1,0,0,1,0,0)"><g opacity="0.2" transform="matrix(1,0,0,1,0,0)"><path stroke-linecap="round" stroke-linejoin="round" fill-opacity="0" stroke="rgb(255,255,255)" stroke-opacity="1" stroke-width="16" d=" M-14.52092456817627,-16.346521377563477 C-14.52092456817627,-16.346521377563477 -24.049158096313477,-13.650914192199707 -31.498687744140625,-10.5927095413208"/></g><g opacity="1" transform="matrix(1,0,0,1,0,0)"><path stroke-linecap="round" stroke-linejoin="round" fill-opacity="0" stroke="rgb(255,255,255)" stroke-opacity="1" stroke-width="6" d=" M-25.81652069091797,-13.105937957763672 C-24.333545684814453,-13.658661842346191 -22.850055694580078,-14.099448204040527 -22.850055694580078,-14.099448204040527"/></g><g opacity="1" transform="matrix(1,0,0,1,0,0)"><path stroke-linecap="round" stroke-linejoin="round" fill-opacity="0" stroke="rgb(255,255,255)" stroke-opacity="1" stroke-width="6" d=" M-28.84067726135254,-12.001220703125 C-28.67467498779297,-12.06728744506836 -28.853452682495117,-11.999032974243164 -28.674917221069336,-12.06728744506836"/></g></g></g></g></g></g><g transform="matrix(-0.5583868622779846,-0.26153624057769775,0.2689158618450165,-0.5430634617805481,537.15576171875,45.12159729003906)" opacity="1" style="display: block;"><g opacity="1" transform="matrix(1,0,0,1,0,0)"><g opacity="1" transform="matrix(1,0,0,1,0,0)"><path fill="rgb(151,225,232)" fill-opacity="1" d=" M161.34498596191406,-121.39876556396484 C168.65220642089844,-129.12596130371094 186.09230041503906,-147.96998596191406 192.89312744140625,-159.14849853515625 C199.6939697265625,-170.32701110839844 169.719482421875,-142.66473388671875 162.74984741210938,-134.7623748779297 C155.78021240234375,-126.86001586914062 155.1403045654297,-116.12108612060547 161.34498596191406,-121.39876556396484z"/></g><g opacity="1" transform="matrix(1,0,0,1,0,0)"><path fill="rgb(71,232,244)" fill-opacity="1" d=" M156.33262634277344,-124.33290100097656 C156.41358947753906,-122.28380584716797 158.3174591064453,-122.48481750488281 163.20779418945312,-127.39104461669922 C169.7035675048828,-133.90333557128906 183.4185028076172,-148.9760284423828 191.43031311035156,-160.1615447998047 C193.673095703125,-161.5576171875 194.44671630859375,-161.3166046142578 192.64381408691406,-158.35446166992188 C185.84498596191406,-147.17994689941406 168.5857391357422,-128.19004821777344 161.0996551513672,-120.61273193359375 C156.76499938964844,-116.9043960571289 154.13575744628906,-118.84249114990234 156.33262634277344,-124.33290100097656z"/></g><g opacity="1" transform="matrix(1,0,0,1,0,0)"><path stroke-linecap="round" stroke-linejoin="round" fill-opacity="0" stroke="rgb(6,111,114)" stroke-opacity="1" stroke-width="8" d=" M161.34498596191406,-121.39876556396484 C166.56150817871094,-124.87000274658203 190.9147491455078,-152.7132110595703 192.64781188964844,-158.3604736328125 C195.5196533203125,-167.7158966064453 169.719482421875,-142.66473388671875 162.74984741210938,-134.7623748779297 C155.78021240234375,-126.86001586914062 153.5909881591797,-117.52142333984375 161.34498596191406,-121.39876556396484z"/></g></g><g opacity="1" transform="matrix(1,0,0,1,0,0)"><g opacity="1" transform="matrix(1,0,0,1,0,0)"><path fill="rgb(12,159,163)" fill-opacity="1" d=" M160.51556396484375,-120.07853698730469 C160.51556396484375,-120.07853698730469 187.40359497070312,-109.79409790039062 201.06683349609375,-93.6569595336914 C215.3695831298828,-76.76372528076172 165.0134735107422,-98.35498809814453 149.62937927246094,-103.79275512695312 C149.62937927246094,-103.79275512695312 152.5081787109375,-111.22443389892578 160.51556396484375,-120.07853698730469z"/></g><g opacity="1" transform="matrix(1,0,0,1,0,0)"><path fill="rgb(71,232,244)" fill-opacity="1" d=" M205.35154724121094,-86.2099838256836 C205.09078979492188,-86.53602600097656 204.8240203857422,-86.86006927490234 204.54225158691406,-87.1941146850586 C190.88400268554688,-103.32624816894531 163.99696350097656,-113.60968780517578 163.99696350097656,-113.60968780517578 C161.8013458251953,-111.17638397216797 162.55091857910156,-106.96784210205078 164.80166625976562,-102.13021087646484 C159.6912841796875,-109.9132308959961 156.30958557128906,-117.6192398071289 159.6155548095703,-121.28169250488281 C159.6155548095703,-121.28169250488281 186.50259399414062,-110.99825286865234 200.16883850097656,-94.85911560058594 C203.06954956054688,-91.43566131591797 204.70834350585938,-88.5652847290039 205.35154724121094,-86.2099838256836z"/></g><g opacity="0.3" transform="matrix(1,0,0,1,0,0)"><path fill="rgb(3,99,107)" fill-opacity="1" d=" M195.1940155029297,-84.22555541992188 C191.0371551513672,-81.78326416015625 157.44955444335938,-101.02836608886719 149.63238525390625,-103.79075622558594 C149.63238525390625,-103.79075622558594 152.51016235351562,-111.22042846679688 160.51455688476562,-120.08053588867188 C160.51455688476562,-120.08053588867188 165.67398071289062,-118.10626220703125 172.62603759765625,-114.52376556396484 C172.91429138183594,-113.9346923828125 175.2810821533203,-95.30207061767578 195.1940155029297,-84.22555541992188z"/></g><g opacity="1" transform="matrix(1,0,0,1,0,0)"><path stroke-linecap="round" stroke-linejoin="round" fill-opacity="0" stroke="rgb(6,111,114)" stroke-opacity="1" stroke-width="8" d=" M160.51556396484375,-120.07853698730469 C160.51556396484375,-120.07853698730469 187.40359497070312,-109.79409790039062 201.06683349609375,-93.6569595336914 C215.3695831298828,-76.76372528076172 165.0134735107422,-98.35498809814453 149.62937927246094,-103.79275512695312 C149.62937927246094,-103.79275512695312 152.5081787109375,-111.22443389892578 160.51556396484375,-120.07853698730469z"/></g></g></g><g transform="matrix(-0.5583868622779846,-0.26153624057769775,0.2689158618450165,-0.5430634617805481,537.15576171875,45.12159729003906)" opacity="1" style="display: block;"><g opacity="1" transform="matrix(1,0,0,1,0,0)"><g opacity="1" transform="matrix(1,0,0,1,0,0)"><path stroke-linecap="round" stroke-linejoin="round" fill-opacity="0" stroke="rgb(3,86,86)" stroke-opacity="1" stroke-width="8" d=" M152.23660278320312,-117.27074432373047"/></g><g opacity="1" transform="matrix(1,0,0,1,0,0)"><path fill="rgb(25,172,175)" fill-opacity="1" d=" M158.5172576904297,-121.05770111083984 C158.5172576904297,-121.05770111083984 141.1608123779297,-156.09695434570312 130.85122680664062,-161.1037139892578 C120.54264831542969,-166.1104736328125 134.63967895507812,-122.83736419677734 135.4942626953125,-112.26693725585938 C135.4942626953125,-112.26693725585938 152.2145538330078,-117.30079650878906 152.2145538330078,-117.30079650878906 C152.2145538330078,-117.30079650878906 158.5172576904297,-121.05770111083984 158.5172576904297,-121.05770111083984z"/></g><g opacity="1" transform="matrix(1,0,0,1,0,0)"><path fill="rgb(71,232,244)" fill-opacity="1" d=" M137.36526489257812,-112.76084899902344 C137.36526489257812,-112.76084899902344 135.32691955566406,-112.5284194946289 135.32691955566406,-112.5284194946289 C134.47134399414062,-123.10185241699219 120.00263977050781,-166.69468688964844 130.31121826171875,-161.6879119873047 C132.8505859375,-160.4534912109375 135.931884765625,-157.2593536376953 139.14300537109375,-153.13589477539062 C138.26065063476562,-153.8681640625 137.50193786621094,-154.23728942871094 136.63137817382812,-154.82749938964844 C126.67601776123047,-161.5798797607422 138.72283935546875,-125.90299987792969 137.36526489257812,-112.76084899902344z"/></g><g opacity="1" transform="matrix(1,0,0,1,0,0)"><path stroke-linecap="round" stroke-linejoin="round" fill-opacity="0" stroke="rgb(6,111,114)" stroke-opacity="1" stroke-width="8" d=" M158.5172576904297,-121.05770111083984 C158.5172576904297,-121.05770111083984 141.1608123779297,-156.09695434570312 130.85122680664062,-161.1037139892578 C120.54264831542969,-166.1104736328125 133.25367736816406,-121.33760833740234 135.4942626953125,-112.26693725585938 C135.98948669433594,-110.2612533569336 152.2145538330078,-117.30079650878906 152.2145538330078,-117.30079650878906 C152.2145538330078,-117.30079650878906 158.5172576904297,-121.05770111083984 158.5172576904297,-121.05770111083984z"/></g><g opacity="1" transform="matrix(1,0,0,1,0,0)"><path stroke-linecap="round" stroke-linejoin="round" fill-opacity="0" stroke="rgb(3,86,86)" stroke-opacity="1" stroke-width="8" d=" M137.25247192382812,-111.33311462402344 C140.73129272460938,-111.13375091552734 152.2145538330078,-117.30079650878906 152.2145538330078,-117.30079650878906 C152.2145538330078,-117.30079650878906 158.5172576904297,-121.05770111083984 158.5172576904297,-121.05770111083984"/></g></g><g opacity="1" transform="matrix(1,0,0,1,0,0)"><g opacity="1" transform="matrix(1,0,0,1,0,0)"><path fill="rgb(7,132,135)" fill-opacity="1" d=" M158.3833770751953,-120.1294937133789 C158.3833770751953,-120.1294937133789 163.79458618164062,-116.83749389648438 157.8113555908203,-106.94548034667969 C151.828125,-97.053466796875 134.8875732421875,-82.60044860839844 122.12712860107422,-79.6804428100586 C122.12712860107422,-79.6804428100586 138.32437133789062,-106.26918029785156 138.32437133789062,-106.26918029785156 C138.32437133789062,-106.26918029785156 158.3833770751953,-120.1294937133789 158.3833770751953,-120.1294937133789z"/></g><g opacity="1" transform="matrix(1,0,0,1,0,0)"><path fill="rgb(71,232,244)" fill-opacity="1" d=" M121.8927993774414,-78.85444641113281 C121.8927993774414,-78.85444641113281 129.4188690185547,-87.74745178222656 129.4188690185547,-87.74745178222656 C141.63050842285156,-94.48046112060547 154.93850708007812,-106.23648071289062 159.97616577148438,-114.56549072265625 C160.1051025390625,-114.7764892578125 160.22503662109375,-114.98448944091797 160.3399658203125,-115.18648529052734 C160.56700134277344,-113.12548828125 160.0378875732422,-110.18447875976562 157.57704162597656,-106.115478515625 C151.59381103515625,-96.22246551513672 134.65423583984375,-81.77544403076172 121.8927993774414,-78.85444641113281z"/></g><g opacity="1" transform="matrix(1,0,0,1,0,0)"><path stroke-linecap="round" stroke-linejoin="round" fill-opacity="0" stroke="rgb(6,111,114)" stroke-opacity="1" stroke-width="8" d=" M158.3833770751953,-120.1294937133789 C158.3833770751953,-120.1294937133789 163.45285034179688,-118.52949523925781 158.6129150390625,-108.33048248291016 C152.79000854492188,-96.06046295166016 123.06840515136719,-76.88758850097656 122.12712860107422,-79.6804428100586 C124.71587371826172,-86.87151336669922 140.5724639892578,-107.51811981201172 140.5724639892578,-107.51811981201172 C140.5724639892578,-107.51811981201172 158.3833770751953,-120.1294937133789 158.3833770751953,-120.1294937133789z"/></g><g opacity="1" transform="matrix(1,0,0,1,0,0)"><path stroke-linecap="round" stroke-linejoin="round" fill-opacity="0" stroke="rgb(3,86,86)" stroke-opacity="1" stroke-width="8" d=" M137.68690490722656,-106.0044937133789 C140.2706756591797,-109.66019439697266 151.35928344726562,-114.7559585571289 151.35928344726562,-114.7559585571289 C151.35928344726562,-114.7559585571289 158.3833770751953,-120.1294937133789 158.3833770751953,-120.1294937133789"/></g></g></g><g transform="matrix(0.3927898406982422,0.8779779076576233,-0.9027515053749084,0.3820107877254486,399.33306884765625,172.5546417236328)" opacity="1" style="display: block;"><g opacity="1" transform="matrix(1,0,0,1,0,0)"><path stroke-linecap="round" stroke-linejoin="round" fill-opacity="0" stroke="rgb(255,255,255)" stroke-opacity="1" stroke-width="0.012571373730942526" d=" M6.1293230056762695,-109.97314453125 C6.1293230056762695,-109.97314453125 -5.3889689445495605,-52.381683349609375 -5.3889689445495605,-52.381683349609375 C-5.3889689445495605,-52.381683349609375 -61.06087875366211,-94.61575317382812 -61.06087875366211,-94.61575317382812 C-61.06087875366211,-94.61575317382812 -64.89997863769531,-44.702491760253906 -64.89997863769531,-44.702491760253906 C-64.89997863769531,-44.702491760253906 -124.4109878540039,-69.65862274169922 -124.4109878540039,-69.65862274169922 C-124.4109878540039,-69.65862274169922 -68.73907470703125,1.370676875114441 -68.73907470703125,1.370676875114441 C-68.73907470703125,1.370676875114441 -118.65233612060547,26.32680892944336 -118.65233612060547,26.32680892944336 C-118.65233612060547,26.32680892944336 -43.78294372558594,37.84510040283203 -43.78294372558594,37.84510040283203 C-43.78294372558594,37.84510040283203 -43.78294372558594,118.47314453125 -43.78294372558594,118.47314453125 C-43.78294372558594,118.47314453125 4.209774494171143,60.881683349609375 4.209774494171143,60.881683349609375 C4.209774494171143,60.881683349609375 57.962135314941406,80.07917022705078 57.962135314941406,80.07917022705078 C57.962135314941406,80.07917022705078 44.524295806884766,39.7646484375 44.524295806884766,39.7646484375 C44.524295806884766,39.7646484375 130.91098022460938,37.84510040283203 130.91098022460938,37.84510040283203 C130.91098022460938,37.84510040283203 88.67691802978516,22.487712860107422 88.67691802978516,22.487712860107422 C88.67691802978516,22.487712860107422 65.64032745361328,-4.3889689445495605 65.64032745361328,-4.3889689445495605 C65.64032745361328,-4.3889689445495605 111.7145004272461,-21.66590690612793 111.7145004272461,-21.66590690612793 C111.7145004272461,-21.66590690612793 54.122039794921875,-44.702491760253906 54.122039794921875,-44.702491760253906 C54.122039794921875,-44.702491760253906 104.0353012084961,-67.73907470703125 104.0353012084961,-67.73907470703125 C104.0353012084961,-67.73907470703125 23.40726089477539,-71.57917022705078 23.40726089477539,-71.57917022705078 C23.40726089477539,-71.57917022705078 6.1293230056762695,-109.97314453125 6.1293230056762695,-109.97314453125z"/></g></g></g></svg>